<svg width="1900" height="980" viewBox="0 0 1900 980" fill="none" xmlns="http://www.w3.org/2000/svg">
<g clip-path="url(#clip0_141_3)">
<path d="M1454.67 250.405L1445.61 241.342C1443.43 239.162 1440.44 237.922 1437.36 237.922C1434.29 237.922 1431.3 236.682 1429.12 234.502L1418.22 223.6C1416.04 221.42 1413.05 220.18 1409.97 220.18H1394.16C1391.08 220.18 1388.09 221.42 1385.91 223.6L1371.76 237.751C1369.58 239.931 1366.59 241.171 1363.51 241.171H1348.34C1345.26 241.171 1342.27 242.411 1340.09 244.591L1334.28 250.405C1333.47 251.218 1334.02 252.586 1335.18 252.586H1453.73C1454.93 252.586 1455.49 251.218 1454.67 250.405Z" fill="white"/>
<path d="M1797.69 183.114H1774.57C1770.51 183.114 1766.57 181.489 1763.71 178.625C1760.85 175.76 1756.92 174.136 1752.86 174.136H1733.28C1729.22 174.136 1725.29 175.76 1722.43 178.625L1712.3 188.757C1711.49 189.569 1712.04 190.937 1713.19 190.937H1808.8C1809.95 190.937 1810.51 189.569 1809.7 188.757L1808.59 187.645C1805.68 184.738 1801.75 183.114 1797.69 183.114Z" fill="white"/>
<path d="M1538.48 135.659L1525.49 122.662C1521.52 118.686 1516.17 116.463 1510.57 116.463H1480.7C1475.1 116.463 1469.72 118.686 1465.79 122.662C1461.81 126.638 1456.47 128.861 1450.87 128.861H1422.32C1416.47 128.861 1410.87 131.298 1406.89 135.573C1406.85 135.616 1406.81 135.659 1406.76 135.701C1406.12 136.385 1406.59 137.54 1407.58 137.54H1537.8C1538.7 137.54 1539.21 136.385 1538.48 135.659Z" fill="white"/>
<path d="M1284.75 200.385C1308.87 200.385 1328.43 180.824 1328.43 156.693C1328.43 132.562 1308.87 113 1284.75 113C1260.62 113 1241.07 132.562 1241.07 156.693C1241.07 180.824 1260.62 200.385 1284.75 200.385Z" fill="white"/>
<path d="M1349.79 446.381L1318.43 424.193L1287.01 446.381L1300.82 393.155L1318.43 325.222L1335.99 393.155L1349.79 446.381Z" fill="#86AB64"/>
<path d="M1335.99 393.155L1318.42 380.757L1300.82 393.155L1318.42 325.222L1335.99 393.155Z" fill="#65906C"/>
<path d="M1341.42 392.172L1318.42 375.926L1295.39 392.172L1305.77 351.985L1318.42 303.247L1331.03 351.985L1341.42 392.172Z" fill="#97B960"/>
<path d="M1331.03 351.985L1318.42 343.049L1305.77 351.985L1318.42 303.247L1331.03 351.985Z" fill="#759D68"/>
<path d="M1318.43 284.607L1301.33 350.574L1318.43 338.518L1335.52 350.574L1318.43 284.607Z" fill="#AFC97A"/>
<path d="M1329.15 346.128L1335.52 350.574L1318.42 284.607L1315.82 294.568L1329.15 346.128Z" fill="#C7D893"/>
<path d="M1313.25 358.269L1307.61 368.017L1313.25 364.255L1318.85 368.017L1313.25 358.269Z" fill="#6B9D59"/>
<path d="M1314.62 319.407L1311.25 325.222L1314.62 322.956L1318 325.222L1314.62 319.407Z" fill="#C7D893"/>
<path d="M1754.18 524.746H1729.52L1730.8 522.865C1732.08 520.984 1732.77 518.761 1732.77 516.452V430.52H1751.23V516.58C1751.23 518.59 1751.74 520.556 1752.77 522.309L1754.18 524.746Z" fill="#9A7F72"/>
<path opacity="0.25" d="M1751.23 458.48L1742 451.298L1732.77 458.48V430.52H1751.23V458.48Z" fill="#5E1E5D"/>
<path d="M1789.18 464.423L1742 431.162L1694.86 464.423L1715.55 384.519L1742 282.384L1768.45 384.519L1789.18 464.423Z" fill="#548270"/>
<path opacity="0.2" d="M1768.45 384.519L1742 365.836L1715.54 384.519L1742 282.384L1768.45 384.519Z" fill="#1B235B"/>
<path d="M1776.62 382.98L1742 358.568L1707.38 382.98L1723.02 322.614L1742 249.379L1760.98 322.614L1776.62 382.98Z" fill="#86AB64"/>
<path d="M1776.62 382.98L1742 358.568L1707.38 382.98L1723.02 322.614L1742 249.379L1760.98 322.614L1776.62 382.98Z" fill="#65906C"/>
<path opacity="0.2" d="M1760.98 322.614L1742 309.19L1723.02 322.614L1742 249.379L1760.98 322.614Z" fill="#1B235B"/>
<path d="M1742 221.334L1716.31 320.519L1742 302.392L1767.69 320.519L1742 221.334Z" fill="#97B960"/>
<path d="M1744.31 230.312L1742 221.334L1716.31 320.519L1722 316.5L1744.31 230.312Z" fill="#A3C16D"/>
<path d="M1746.66 302.392L1744.31 304.017L1767.69 320.519L1766.66 316.5L1746.66 302.392Z" fill="#A3C16D"/>
<path d="M1748.11 281.273L1742.21 291.49L1748.11 287.514L1754.01 291.49L1748.11 281.273Z" fill="#AFC97A"/>
<path d="M1760.98 402.389L1751.4 418.977L1760.98 412.564L1770.55 418.977L1760.98 402.389Z" fill="#6B9D59"/>
<path d="M1744.31 384.861L1736.91 397.729L1744.31 392.727L1751.74 397.729L1744.31 384.861Z" fill="#2A724E"/>
<path d="M1211.45 551.68V442.149H1187.82V551.167C1187.82 553.818 1186.83 556.383 1185 558.349L1180.85 562.881H1187.82H1211.45H1217.35L1213.67 558.178C1212.22 556.34 1211.45 554.031 1211.45 551.68Z" fill="#A88C7C"/>
<path opacity="0.25" d="M1211.45 490.074L1199.61 481.096L1187.82 490.074V433.898H1211.45V490.074Z" fill="#5E1E5D"/>
<path d="M1260.04 485.585L1199.61 442.919L1139.18 485.585L1165.72 383.151L1199.61 252.329L1233.5 383.151L1260.04 485.585Z" fill="#759D68"/>
<path d="M1233.5 383.151L1199.61 359.253L1165.72 383.151L1199.61 252.329L1233.5 383.151Z" fill="#65906C"/>
<path d="M1243.98 381.227L1199.61 349.933L1155.29 381.227L1175.34 303.846L1199.61 210.047L1223.93 303.846L1243.98 381.227Z" fill="#86AB64"/>
<path d="M1243.98 381.227L1199.61 349.933L1155.29 381.227L1175.34 303.846L1199.61 210.047L1223.93 303.846L1243.98 381.227Z" fill="#86AB64"/>
<path d="M1223.93 303.846L1199.61 286.702L1175.34 303.846L1199.61 210.047L1223.93 303.846Z" fill="#759D68"/>
<path d="M1199.61 174.136L1166.71 301.195L1199.61 277.938L1232.56 301.195L1199.61 174.136Z" fill="#97B960"/>
<path d="M1224.66 295.595L1232.56 301.195L1199.61 174.136L1196.41 186.534L1224.66 295.595Z" fill="#A3C16D"/>
<path d="M1190.81 315.902L1180.85 333.131L1190.81 326.462L1200.72 333.131L1190.81 315.902Z" fill="#568E55"/>
<path d="M1223.93 418.55L1217.31 430.007L1223.93 425.561L1230.56 430.007L1223.93 418.55Z" fill="#568E55"/>
<path d="M1178.24 415.985L1168.67 432.573L1178.24 426.16L1187.82 432.573L1178.24 415.985Z" fill="#A3C16D"/>
<path d="M1192.31 382.638L1184.36 396.404L1192.31 391.06L1200.25 396.404L1192.31 382.638Z" fill="#568E55"/>
<path d="M1201.88 250.32L1195.25 261.778L1201.88 257.374L1208.5 261.778L1201.88 250.32Z" fill="#AFC97A"/>
<path d="M1654.6 377.251L1652.76 370.24L1660.97 376.054L1648.7 328.685L1646.99 322.101L1654 327.017L1633.83 249.251L1613.66 327.017L1620.67 322.101L1618.96 328.685L1606.69 376.054L1614.9 370.24L1613.06 377.251L1596.82 439.969L1633.83 413.847L1670.84 439.969L1654.6 377.251Z" fill="#C7D893"/>
<path d="M1755.29 116.506V130.657C1755.29 142.285 1745.89 151.691 1734.26 151.691H1684.26C1672.64 151.691 1663.23 161.096 1663.23 172.725C1663.23 184.353 1653.83 193.759 1642.21 193.759H1567.93C1556.3 193.759 1546.9 203.164 1546.9 214.793V238.264H1531.35V190.809C1531.35 179.18 1540.75 169.775 1552.37 169.775H1595.11C1606.73 169.775 1616.14 160.369 1616.14 148.741V137.497C1616.14 125.868 1625.54 116.463 1637.16 116.463H1755.29" fill="url(#paint0_linear_141_3)"/>
<path d="M1535.49 242.582H1512.07V334.242H1535.49V242.582Z" fill="#8C7269"/>
<path d="M1576.35 242.582H1535.49V334.242H1576.35V242.582Z" fill="#634C4C"/>
<path d="M1541.47 234.972H1507.58V242.582H1541.47V234.972Z" fill="#8C7269"/>
<path d="M1581.52 234.972H1541.43V242.582H1581.52V234.972Z" fill="#634C4C"/>
<path d="M1840.08 689V647.872C1840.08 633.508 1834.36 619.699 1824.19 609.524L1823.24 608.583C1813.07 598.408 1807.35 584.642 1807.35 570.234V564.805C1807.35 550.44 1801.62 536.631 1791.45 526.456C1781.28 516.281 1767.51 510.552 1753.11 510.552H1658.79V688.957H1840.08V689Z" fill="url(#paint1_linear_141_3)"/>
<path d="M1824.23 609.524L1823.29 608.583C1813.12 598.408 1807.39 584.642 1807.39 570.234V564.805C1807.39 550.44 1801.66 536.631 1791.49 526.456C1781.32 516.281 1767.56 510.552 1753.15 510.552H1658.83V515.982H1747.34C1761.7 515.982 1775.51 521.711 1785.68 531.886C1795.85 542.061 1801.58 555.827 1801.58 570.234V575.664C1801.58 590.029 1807.3 603.838 1817.48 614.013L1818.42 614.953C1828.59 625.128 1834.31 638.894 1834.31 653.302V689H1840.08V647.872C1840.08 633.465 1834.4 619.699 1824.23 609.524Z" fill="url(#paint2_linear_141_3)"/>
<path d="M1783.63 571.26C1787.05 574.681 1787.05 580.196 1787.05 580.196C1787.05 580.196 1781.53 580.196 1778.11 576.776C1774.69 573.355 1774.69 567.84 1774.69 567.84C1774.69 567.84 1780.21 567.84 1783.63 571.26Z" fill="#1A5B39"/>
<path d="M1770.29 550.782C1764.48 556.597 1755.12 556.597 1755.12 556.597C1755.12 556.597 1755.16 547.191 1760.93 541.42C1766.75 535.605 1776.1 535.605 1776.1 535.605C1776.1 535.605 1776.1 544.968 1770.29 550.782Z" fill="#408052"/>
<path d="M1129.14 689V647.958C1129.14 633.593 1134.82 619.827 1144.99 609.695L1145.94 608.754C1156.06 598.622 1161.79 584.856 1161.79 570.491V565.061C1161.79 550.697 1167.48 536.931 1177.65 526.798C1187.78 516.666 1201.54 510.937 1215.9 510.937H1310.01V689H1129.14V689Z" fill="url(#paint3_linear_141_3)"/>
<path d="M1134.35 650.438C1134.35 636.073 1140.04 622.307 1150.21 612.174L1151.15 611.234C1161.28 601.102 1167 587.335 1167 572.971V567.541C1167 553.176 1172.69 539.41 1182.86 529.278C1192.99 519.146 1206.75 513.417 1221.11 513.417H1310.05V510.937H1215.85C1201.49 510.937 1187.73 516.623 1177.6 526.798C1167.47 536.931 1161.75 550.697 1161.75 565.061V570.491C1161.75 584.856 1156.06 598.622 1145.89 608.754L1144.95 609.695C1134.82 619.827 1129.1 633.593 1129.1 647.958V689H1134.31V650.438H1134.35Z" fill="#6B9D59"/>
<path d="M1192.13 576.348C1187.73 580.751 1180.64 580.751 1180.64 580.751C1180.64 580.751 1180.64 573.655 1185.04 569.251C1189.44 564.848 1196.54 564.848 1196.54 564.848C1196.54 564.848 1196.54 571.945 1192.13 576.348Z" fill="#408052"/>
<path d="M1204.91 540.393C1210.43 545.908 1210.43 554.801 1210.43 554.801C1210.43 554.801 1201.49 554.801 1196.02 549.286C1190.51 543.771 1190.51 534.878 1190.51 534.878C1190.51 534.878 1199.4 534.878 1204.91 540.393Z" fill="#6B9D59"/>
<path d="M1536.43 579.469H1219.57V625.385H1536.43V579.469Z" fill="#CABAAD"/>
<path opacity="0.3" d="M1531.43 620.81H1219.57V637.74H1531.43V620.81Z" fill="url(#paint4_linear_141_3)"/>
<path d="M1509.25 610.977H1491.81V615.381H1509.25V610.977Z" fill="#BEAA9C"/>
<path d="M1410.4 608.754H1392.96V613.158H1410.4V608.754Z" fill="#B39B8C"/>
<path d="M1396.29 588.832H1386.81V593.235H1396.29V588.832Z" fill="#D5C9BD"/>
<path d="M1469.89 608.754H1452.45V613.158H1469.89V608.754Z" fill="#B39B8C"/>
<path d="M1419.12 602.512H1401.68V606.916H1419.12V602.512Z" fill="#D5C9BD"/>
<path d="M1509.25 592.038H1491.81V596.442H1509.25V592.038Z" fill="#D5C9BD"/>
<path d="M1455.91 586.267H1438.48V590.67H1455.91V586.267Z" fill="#E0D8CD"/>
<path d="M1464.63 592.252H1447.19V596.655H1464.63V592.252Z" fill="#BEAA9C"/>
<path d="M1301.8 610.464H1284.36V614.868H1301.8V610.464Z" fill="#B39B8C"/>
<path d="M1267.44 596.484H1250V600.888H1267.44V596.484Z" fill="#D5C9BD"/>
<path d="M1326.67 587.934H1309.24V592.337H1326.67V587.934Z" fill="#E0D8CD"/>
<path d="M1318.72 594.261H1301.29V598.665H1318.72V594.261Z" fill="#BEAA9C"/>
<path d="M1258.68 590.157H1241.24V594.56H1258.68V590.157Z" fill="#BEAA9C"/>
<path d="M1764.27 588.49H1536.43V625.385H1764.27V588.49Z" fill="#CABAAD"/>
<path d="M1377.62 579.469V588.661H1368.47V597.852H1359.28V607.044H1350.09V616.193H1340.91V625.385H1350.09H1359.28H1368.47H1377.62H1386.81V616.193V607.044V597.852V588.661V579.469H1377.62Z" fill="#CABAAD"/>
<path d="M1377.62 579.469V588.661H1368.47V597.852H1359.28V607.044H1350.09V616.193H1340.91V625.385H1350.09H1359.28H1368.47H1377.62H1386.81V616.193V607.044V597.852V588.661V579.469H1377.62Z" fill="#B39B8C"/>
<path opacity="0.25" d="M1377.62 579.469V588.661H1368.47V597.852H1359.28V607.044H1350.09V616.193H1340.91V625.385H1350.09H1359.28H1368.47H1377.62H1386.81V616.193V607.044V597.852V588.661V579.469H1377.62Z" fill="url(#paint5_linear_141_3)"/>
<path d="M1340.95 616.193H1309.24V625.385H1340.95V616.193Z" fill="#D5C9BD"/>
<path d="M1350.14 607.044H1318.42V616.236H1350.14V607.044Z" fill="#D5C9BD"/>
<path d="M1359.2 597.852H1327.49V607.044H1359.2V597.852Z" fill="#D5C9BD"/>
<path d="M1377.66 579.469H1345.95V588.661H1377.66V579.469Z" fill="#D5C9BD"/>
<path d="M1368.39 588.661H1336.67V597.852H1368.39V588.661Z" fill="#D5C9BD"/>
<path d="M1368.47 330.523L1224.79 579.469H1512.16L1368.47 330.523Z" fill="url(#paint6_linear_141_3)"/>
<mask id="mask0_141_3" style="mask-type:alpha" maskUnits="userSpaceOnUse" x="1224" y="330" width="289" height="250">
<path d="M1368.47 330.523L1224.79 579.469H1512.16L1368.47 330.523Z" fill="url(#paint7_linear_141_3)"/>
</mask>
<g mask="url(#mask0_141_3)">
<g opacity="0.2">
<path opacity="0.2" d="M1235.6 297.433H1235.17V683.015H1235.6V297.433Z" fill="#5E1E5D"/>
</g>
<g opacity="0.2">
<path opacity="0.2" d="M1248.93 297.433H1248.51V683.015H1248.93V297.433Z" fill="#5E1E5D"/>
</g>
<g opacity="0.2">
<path opacity="0.2" d="M1262.31 297.433H1261.88V683.015H1262.31V297.433Z" fill="#5E1E5D"/>
</g>
<g opacity="0.2">
<path opacity="0.2" d="M1275.64 297.433H1275.22V683.015H1275.64V297.433Z" fill="#5E1E5D"/>
</g>
<g opacity="0.2">
<path opacity="0.2" d="M1289.02 297.433H1288.59V683.015H1289.02V297.433Z" fill="#5E1E5D"/>
</g>
<g opacity="0.2">
<path opacity="0.2" d="M1302.4 297.433H1301.97V683.015H1302.4V297.433Z" fill="#5E1E5D"/>
</g>
<g opacity="0.2">
<path opacity="0.2" d="M1315.73 297.433H1315.3V683.015H1315.73V297.433Z" fill="#5E1E5D"/>
</g>
<g opacity="0.2">
<path opacity="0.2" d="M1329.11 297.433H1328.68V683.015H1329.11V297.433Z" fill="#5E1E5D"/>
</g>
<g opacity="0.2">
<path opacity="0.2" d="M1342.44 297.433H1342.02V683.015H1342.44V297.433Z" fill="#5E1E5D"/>
</g>
<g opacity="0.2">
<path opacity="0.2" d="M1355.82 297.433H1355.39V683.015H1355.82V297.433Z" fill="#5E1E5D"/>
</g>
<g opacity="0.2">
<path opacity="0.2" d="M1369.15 297.433H1368.73V683.015H1369.15V297.433Z" fill="#5E1E5D"/>
</g>
<g opacity="0.2">
<path opacity="0.2" d="M1382.53 297.433H1382.1V683.015H1382.53V297.433Z" fill="#5E1E5D"/>
</g>
<g opacity="0.2">
<path opacity="0.2" d="M1395.87 297.433H1395.44V683.015H1395.87V297.433Z" fill="#5E1E5D"/>
</g>
<g opacity="0.2">
<path opacity="0.2" d="M1409.24 297.433H1408.82V683.015H1409.24V297.433Z" fill="#5E1E5D"/>
</g>
<g opacity="0.2">
<path opacity="0.2" d="M1422.62 297.433H1422.19V683.015H1422.62V297.433Z" fill="#5E1E5D"/>
</g>
<g opacity="0.2">
<path opacity="0.2" d="M1435.95 297.433H1435.53V683.015H1435.95V297.433Z" fill="#5E1E5D"/>
</g>
<g opacity="0.2">
<path opacity="0.2" d="M1449.33 297.433H1448.9V683.015H1449.33V297.433Z" fill="#5E1E5D"/>
</g>
<g opacity="0.2">
<path opacity="0.2" d="M1462.67 297.433H1462.24V683.015H1462.67V297.433Z" fill="#5E1E5D"/>
</g>
<g opacity="0.2">
<path opacity="0.2" d="M1476.04 297.433H1475.61V683.015H1476.04V297.433Z" fill="#5E1E5D"/>
</g>
<g opacity="0.2">
<path opacity="0.2" d="M1489.38 297.433H1488.95V683.015H1489.38V297.433Z" fill="#5E1E5D"/>
</g>
<g opacity="0.2">
<path opacity="0.2" d="M1502.75 297.433H1502.33V683.015H1502.75V297.433Z" fill="#5E1E5D"/>
</g>
<g opacity="0.2">
<path opacity="0.2" d="M1235.6 297.433H1235.17V683.015H1235.6V297.433Z" fill="#5E1E5D"/>
</g>
<g opacity="0.2">
<path opacity="0.2" d="M1248.93 297.433H1248.51V683.015H1248.93V297.433Z" fill="#5E1E5D"/>
</g>
<g opacity="0.2">
<path opacity="0.2" d="M1262.31 297.433H1261.88V683.015H1262.31V297.433Z" fill="#5E1E5D"/>
</g>
<g opacity="0.2">
<path opacity="0.2" d="M1275.64 297.433H1275.22V683.015H1275.64V297.433Z" fill="#5E1E5D"/>
</g>
<g opacity="0.2">
<path opacity="0.2" d="M1289.02 297.433H1288.59V683.015H1289.02V297.433Z" fill="#5E1E5D"/>
</g>
<g opacity="0.2">
<path opacity="0.2" d="M1302.4 297.433H1301.97V683.015H1302.4V297.433Z" fill="#5E1E5D"/>
</g>
<g opacity="0.2">
<path opacity="0.2" d="M1315.73 297.433H1315.3V683.015H1315.73V297.433Z" fill="#5E1E5D"/>
</g>
<g opacity="0.2">
<path opacity="0.2" d="M1329.11 297.433H1328.68V683.015H1329.11V297.433Z" fill="#5E1E5D"/>
</g>
<g opacity="0.2">
<path opacity="0.2" d="M1342.44 297.433H1342.02V683.015H1342.44V297.433Z" fill="#5E1E5D"/>
</g>
<g opacity="0.2">
<path opacity="0.2" d="M1355.82 297.433H1355.39V683.015H1355.82V297.433Z" fill="#5E1E5D"/>
</g>
<g opacity="0.2">
<path opacity="0.2" d="M1369.15 297.433H1368.73V683.015H1369.15V297.433Z" fill="#5E1E5D"/>
</g>
<g opacity="0.2">
<path opacity="0.2" d="M1382.53 297.433H1382.1V683.015H1382.53V297.433Z" fill="#5E1E5D"/>
</g>
<g opacity="0.2">
<path opacity="0.2" d="M1395.87 297.433H1395.44V683.015H1395.87V297.433Z" fill="#5E1E5D"/>
</g>
<g opacity="0.2">
<path opacity="0.2" d="M1409.24 297.433H1408.82V683.015H1409.24V297.433Z" fill="#5E1E5D"/>
</g>
<g opacity="0.2">
<path opacity="0.2" d="M1422.62 297.433H1422.19V683.015H1422.62V297.433Z" fill="#5E1E5D"/>
</g>
<g opacity="0.2">
<path opacity="0.2" d="M1435.95 297.433H1435.53V683.015H1435.95V297.433Z" fill="#5E1E5D"/>
</g>
<g opacity="0.2">
<path opacity="0.2" d="M1449.33 297.433H1448.9V683.015H1449.33V297.433Z" fill="#5E1E5D"/>
</g>
<g opacity="0.2">
<path opacity="0.2" d="M1462.67 297.433H1462.24V683.015H1462.67V297.433Z" fill="#5E1E5D"/>
</g>
<g opacity="0.2">
<path opacity="0.2" d="M1476.04 297.433H1475.61V683.015H1476.04V297.433Z" fill="#5E1E5D"/>
</g>
<g opacity="0.2">
<path opacity="0.2" d="M1489.38 297.433H1488.95V683.015H1489.38V297.433Z" fill="#5E1E5D"/>
</g>
<g opacity="0.2">
<path opacity="0.2" d="M1502.75 297.433H1502.33V683.015H1502.75V297.433Z" fill="#5E1E5D"/>
</g>
<g opacity="0.2">
<path opacity="0.2" d="M1235.6 297.433H1235.17V683.015H1235.6V297.433Z" fill="#5E1E5D"/>
</g>
<g opacity="0.2">
<path opacity="0.2" d="M1248.93 297.433H1248.51V683.015H1248.93V297.433Z" fill="#5E1E5D"/>
</g>
<g opacity="0.2">
<path opacity="0.2" d="M1262.31 297.433H1261.88V683.015H1262.31V297.433Z" fill="#5E1E5D"/>
</g>
<g opacity="0.2">
<path opacity="0.2" d="M1275.64 297.433H1275.22V683.015H1275.64V297.433Z" fill="#5E1E5D"/>
</g>
<g opacity="0.2">
<path opacity="0.2" d="M1289.02 297.433H1288.59V683.015H1289.02V297.433Z" fill="#5E1E5D"/>
</g>
<g opacity="0.2">
<path opacity="0.2" d="M1302.4 297.433H1301.97V683.015H1302.4V297.433Z" fill="#5E1E5D"/>
</g>
<g opacity="0.2">
<path opacity="0.2" d="M1315.73 297.433H1315.3V683.015H1315.73V297.433Z" fill="#5E1E5D"/>
</g>
<g opacity="0.2">
<path opacity="0.2" d="M1329.11 297.433H1328.68V683.015H1329.11V297.433Z" fill="#5E1E5D"/>
</g>
<g opacity="0.2">
<path opacity="0.2" d="M1342.44 297.433H1342.02V683.015H1342.44V297.433Z" fill="#5E1E5D"/>
</g>
<g opacity="0.2">
<path opacity="0.2" d="M1355.82 297.433H1355.39V683.015H1355.82V297.433Z" fill="#5E1E5D"/>
</g>
<g opacity="0.2">
<path opacity="0.2" d="M1369.15 297.433H1368.73V683.015H1369.15V297.433Z" fill="#5E1E5D"/>
</g>
<g opacity="0.2">
<path opacity="0.2" d="M1382.53 297.433H1382.1V683.015H1382.53V297.433Z" fill="#5E1E5D"/>
</g>
<g opacity="0.2">
<path opacity="0.2" d="M1395.87 297.433H1395.44V683.015H1395.87V297.433Z" fill="#5E1E5D"/>
</g>
<g opacity="0.2">
<path opacity="0.2" d="M1409.24 297.433H1408.82V683.015H1409.24V297.433Z" fill="#5E1E5D"/>
</g>
<g opacity="0.2">
<path opacity="0.2" d="M1422.62 297.433H1422.19V683.015H1422.62V297.433Z" fill="#5E1E5D"/>
</g>
<g opacity="0.2">
<path opacity="0.2" d="M1435.95 297.433H1435.53V683.015H1435.95V297.433Z" fill="#5E1E5D"/>
</g>
<g opacity="0.2">
<path opacity="0.2" d="M1449.33 297.433H1448.9V683.015H1449.33V297.433Z" fill="#5E1E5D"/>
</g>
<g opacity="0.2">
<path opacity="0.2" d="M1462.67 297.433H1462.24V683.015H1462.67V297.433Z" fill="#5E1E5D"/>
</g>
<g opacity="0.2">
<path opacity="0.2" d="M1476.04 297.433H1475.61V683.015H1476.04V297.433Z" fill="#5E1E5D"/>
</g>
<g opacity="0.2">
<path opacity="0.2" d="M1489.38 297.433H1488.95V683.015H1489.38V297.433Z" fill="#5E1E5D"/>
</g>
<g opacity="0.2">
<path opacity="0.2" d="M1502.75 297.433H1502.33V683.015H1502.75V297.433Z" fill="#5E1E5D"/>
</g>
</g>
<path opacity="0.3" d="M1334.84 530.56V505.679C1334.84 494.777 1326.33 485.884 1315.48 485.371C1315.18 485.371 1314.88 485.329 1314.54 485.329C1314.19 485.329 1313.89 485.329 1313.6 485.371C1302.74 485.884 1294.24 494.777 1294.24 505.679V530.56H1334.84Z" fill="url(#paint8_linear_141_3)"/>
<path d="M1334.84 528.808V503.926C1334.84 493.024 1326.33 484.132 1315.48 483.619C1315.18 483.619 1314.88 483.576 1314.54 483.576C1314.19 483.576 1313.89 483.576 1313.6 483.619C1302.74 484.132 1294.24 493.024 1294.24 503.926V528.808H1334.84Z" fill="#634C4C"/>
<path d="M1331.89 503.926V525.815H1297.18V503.926C1297.18 494.606 1304.54 486.996 1313.72 486.611C1313.98 486.611 1314.24 486.611 1314.49 486.611C1314.75 486.611 1315.01 486.611 1315.3 486.611C1324.54 486.996 1331.89 494.606 1331.89 503.926Z" fill="#5FC4CF"/>
<path opacity="0.25" d="M1331.89 503.926V525.815H1297.18V503.926C1297.18 494.606 1304.54 486.996 1313.72 486.611C1313.98 486.611 1314.24 486.611 1314.49 486.611C1314.75 486.611 1315.01 486.611 1315.3 486.611C1324.54 486.996 1331.89 494.606 1331.89 503.926Z" fill="url(#paint9_linear_141_3)"/>
<path opacity="0.5" d="M1316.33 486.654C1315.73 486.611 1315.13 486.568 1314.54 486.568C1304.96 486.568 1297.18 494.349 1297.18 503.926V525.815H1300.77V503.926C1300.82 494.948 1307.61 487.594 1316.33 486.654Z" fill="#0087B1"/>
<path d="M1315.35 486.611V525.858H1313.77V486.611C1314.02 486.611 1314.28 486.611 1314.54 486.611C1314.79 486.568 1315.05 486.568 1315.35 486.611Z" fill="#634C4C"/>
<path d="M1331.89 506.405H1297.18V507.987H1331.89V506.405Z" fill="#634C4C"/>
<path opacity="0.3" d="M1391.64 430.136V405.254C1391.64 394.352 1383.13 385.46 1372.27 384.947C1371.98 384.947 1371.68 384.904 1371.33 384.904C1370.99 384.904 1370.69 384.904 1370.39 384.947C1359.54 385.46 1351.03 394.352 1351.03 405.254V430.136H1391.64Z" fill="url(#paint10_linear_141_3)"/>
<path d="M1391.64 428.34V403.458C1391.64 392.556 1383.13 383.664 1372.27 383.151C1371.98 383.151 1371.68 383.108 1371.33 383.108C1370.99 383.108 1370.69 383.108 1370.39 383.151C1359.54 383.664 1351.03 392.556 1351.03 403.458V428.34H1391.64Z" fill="#634C4C"/>
<path d="M1388.69 403.458V425.347H1353.98V403.458C1353.98 394.138 1361.33 386.528 1370.52 386.144C1370.78 386.144 1371.04 386.144 1371.29 386.144C1371.55 386.144 1371.8 386.144 1372.1 386.144C1381.34 386.528 1388.69 394.181 1388.69 403.458Z" fill="#5FC4CF"/>
<path opacity="0.5" d="M1373.13 386.229C1372.53 386.186 1371.93 386.144 1371.33 386.144C1361.76 386.144 1353.98 393.925 1353.98 403.501V425.39H1357.57V403.501C1357.57 394.523 1364.41 387.127 1373.13 386.229Z" fill="#0087B1"/>
<mask id="mask1_141_3" style="mask-type:alpha" maskUnits="userSpaceOnUse" x="1353" y="386" width="36" height="40">
<path d="M1388.69 403.458V425.347H1353.98V403.458C1353.98 394.138 1361.33 386.528 1370.52 386.144C1370.78 386.144 1371.04 386.144 1371.29 386.144C1371.55 386.144 1371.8 386.144 1372.1 386.144C1381.34 386.528 1388.69 394.181 1388.69 403.458Z" fill="#5FC4CF"/>
</mask>
<g mask="url(#mask1_141_3)">
<path opacity="0.5" d="M1346.72 422.611L1341.08 416.925L1377.79 380.158L1383.47 385.844L1346.72 422.611Z" fill="url(#paint11_linear_141_3)"/>
<path opacity="0.5" d="M1350.09 425.946L1348.17 424.022L1384.88 387.255L1386.81 389.222L1350.09 425.946Z" fill="url(#paint12_linear_141_3)"/>
</g>
<path opacity="0.3" d="M1446.55 530.56V505.679C1446.55 494.777 1438.05 485.884 1427.19 485.371C1426.89 485.371 1426.59 485.329 1426.25 485.329C1425.91 485.329 1425.61 485.329 1425.31 485.371C1414.46 485.884 1405.95 494.777 1405.95 505.679V530.56H1446.55Z" fill="url(#paint13_linear_141_3)"/>
<path d="M1446.55 528.808V503.926C1446.55 493.024 1438.05 484.132 1427.19 483.619C1426.89 483.619 1426.59 483.576 1426.25 483.576C1425.91 483.576 1425.61 483.576 1425.31 483.619C1414.46 484.132 1405.95 493.024 1405.95 503.926V528.808H1446.55Z" fill="#634C4C"/>
<path d="M1443.6 503.926V525.815H1408.9V503.926C1408.9 494.606 1416.25 486.996 1425.44 486.611C1425.7 486.611 1425.95 486.611 1426.21 486.611C1426.47 486.611 1426.72 486.611 1427.02 486.611C1436.25 486.996 1443.6 494.606 1443.6 503.926Z" fill="#5FC4CF"/>
<path opacity="0.25" d="M1443.6 503.926V525.815H1408.9V503.926C1408.9 494.606 1416.25 486.996 1425.44 486.611C1425.7 486.611 1425.95 486.611 1426.21 486.611C1426.47 486.611 1426.72 486.611 1427.02 486.611C1436.25 486.996 1443.6 494.606 1443.6 503.926Z" fill="url(#paint14_linear_141_3)"/>
<path opacity="0.5" d="M1428.05 486.654C1427.45 486.611 1426.85 486.568 1426.25 486.568C1416.68 486.568 1408.9 494.349 1408.9 503.926V525.815H1412.49V503.926C1412.53 494.948 1419.33 487.594 1428.05 486.654Z" fill="#0087B1"/>
<path d="M1427.02 486.611V525.858H1425.44V486.611C1425.7 486.611 1425.95 486.611 1426.21 486.611C1426.51 486.568 1426.77 486.568 1427.02 486.611Z" fill="#634C4C"/>
<path d="M1443.6 506.405H1408.9V507.987H1443.6V506.405Z" fill="#634C4C"/>
<path d="M1349.11 579.469V521.967C1349.11 510.809 1358.17 501.745 1369.33 501.745C1380.48 501.745 1389.54 510.809 1389.54 521.967V579.469H1349.11Z" fill="#715956"/>
<path d="M1369.33 504.225C1359.54 504.225 1351.59 512.177 1351.59 521.967V579.469H1387.02V521.967C1387.06 512.177 1379.11 504.225 1369.33 504.225Z" fill="#B39B8C"/>
<path opacity="0.15" d="M1369.33 504.225C1359.54 504.225 1351.59 512.177 1351.59 521.967V579.469H1387.02V521.967C1387.06 512.177 1379.11 504.225 1369.33 504.225Z" fill="url(#paint15_linear_141_3)"/>
<path opacity="0.5" d="M1371.46 504.353C1370.78 504.268 1370.05 504.225 1369.33 504.225C1359.54 504.225 1351.59 512.177 1351.59 521.967V579.469H1355.82V521.967C1355.86 512.904 1362.66 505.422 1371.46 504.353Z" fill="#8C7269"/>
<path d="M1369.75 534.451C1375.32 534.451 1379.84 529.934 1379.84 524.361C1379.84 518.789 1375.32 514.272 1369.75 514.272C1364.18 514.272 1359.67 518.789 1359.67 524.361C1359.67 529.934 1364.18 534.451 1369.75 534.451Z" fill="#937B6A"/>
<path d="M1369.75 533.083C1374.57 533.083 1378.47 529.178 1378.47 524.361C1378.47 519.545 1374.57 515.64 1369.75 515.64C1364.94 515.64 1361.03 519.545 1361.03 524.361C1361.03 529.178 1364.94 533.083 1369.75 533.083Z" fill="#5FC4CF"/>
<path d="M1369.75 533.083C1374.57 533.083 1378.47 529.178 1378.47 524.361C1378.47 519.545 1374.57 515.64 1369.75 515.64C1364.94 515.64 1361.03 519.545 1361.03 524.361C1361.03 529.178 1364.94 533.083 1369.75 533.083Z" fill="#243651"/>
<path d="M1364.2 524.361C1364.2 520.086 1367.27 516.538 1371.33 515.768C1370.82 515.683 1370.31 515.64 1369.75 515.64C1364.92 515.64 1361.03 519.53 1361.03 524.361C1361.03 529.192 1364.92 533.083 1369.75 533.083C1370.31 533.083 1370.82 533.04 1371.33 532.955C1367.27 532.228 1364.2 528.637 1364.2 524.361Z" fill="#3E4463"/>
<path opacity="0.5" d="M1381.63 569.208H1357.87V575.065H1381.63V569.208Z" fill="#8C7269"/>
<path d="M1340.52 570.662H1230.09V572.885H1340.52V570.662Z" fill="#8C7269"/>
<path d="M1340.52 548.388H1230.09V550.611H1340.52V548.388Z" fill="#8C7269"/>
<path d="M1316.25 549.5H1305.52V571.773H1316.25V549.5Z" fill="#8C7269"/>
<path d="M1335.09 549.5H1324.37V571.773H1335.09V549.5Z" fill="#8C7269"/>
<path d="M1340.52 548.388H1337.83V579.512H1340.52V548.388Z" fill="#8C7269"/>
<path d="M1340.56 548.388H1339.2V579.512H1340.56V548.388Z" fill="#715956"/>
<path d="M1321.63 549.5H1318.94V571.773H1321.63V549.5Z" fill="#8C7269"/>
<path d="M1297.36 549.5H1286.63V571.773H1297.36V549.5Z" fill="#8C7269"/>
<path d="M1302.78 549.5H1300.09V571.773H1302.78V549.5Z" fill="#8C7269"/>
<path d="M1283.89 549.5H1281.2V571.773H1283.89V549.5Z" fill="#8C7269"/>
<path d="M1278.51 549.5H1267.78V571.773H1278.51V549.5Z" fill="#8C7269"/>
<path d="M1265.05 549.5H1262.35V571.773H1265.05V549.5Z" fill="#8C7269"/>
<path d="M1259.62 549.5H1248.89V571.773H1259.62V549.5Z" fill="#8C7269"/>
<path d="M1246.16 549.5H1243.46V571.773H1246.16V549.5Z" fill="#8C7269"/>
<path d="M1335.09 550.611H1324.37V551.723H1335.09V550.611Z" fill="#715956"/>
<path d="M1321.63 550.611H1318.94V551.723H1321.63V550.611Z" fill="#715956"/>
<path d="M1316.25 550.611H1305.52V551.723H1316.25V550.611Z" fill="#715956"/>
<path d="M1302.78 550.611H1300.09V551.723H1302.78V550.611Z" fill="#715956"/>
<path d="M1297.36 550.611H1286.63V551.723H1297.36V550.611Z" fill="#715956"/>
<path d="M1283.89 550.611H1281.2V551.723H1283.89V550.611Z" fill="#715956"/>
<path d="M1278.51 550.611H1267.78V551.723H1278.51V550.611Z" fill="#715956"/>
<path d="M1259.62 550.611H1248.89V551.723H1259.62V550.611Z" fill="#715956"/>
<path d="M1265.05 550.611H1262.35V551.723H1265.05V550.611Z" fill="#715956"/>
<path d="M1297.36 569.508H1286.63V570.619H1297.36V569.508Z" fill="#715956"/>
<path d="M1283.89 569.508H1281.2V570.619H1283.89V569.508Z" fill="#715956"/>
<path d="M1278.51 569.508H1267.78V570.619H1278.51V569.508Z" fill="#715956"/>
<path d="M1259.62 569.508H1248.89V570.619H1259.62V569.508Z" fill="#715956"/>
<path d="M1265.05 569.508H1262.35V570.619H1265.05V569.508Z" fill="#715956"/>
<path d="M1246.16 569.508H1243.46V570.619H1246.16V569.508Z" fill="#715956"/>
<path d="M1335.09 569.508H1324.37V570.619H1335.09V569.508Z" fill="#715956"/>
<path d="M1321.63 569.508H1318.94V570.619H1321.63V569.508Z" fill="#715956"/>
<path d="M1316.25 569.508H1305.52V570.619H1316.25V569.508Z" fill="#715956"/>
<path d="M1302.78 569.508H1300.09V570.619H1302.78V569.508Z" fill="#715956"/>
<path d="M1453.9 455.017H1282.14V463.14H1453.9V455.017Z" fill="#8C7269"/>
<path d="M1453.9 459.079H1282.14V463.14H1453.9V459.079Z" fill="#715956"/>
<path opacity="0.3" d="M1453.9 463.098H1282.14V467.159H1453.9V463.098Z" fill="url(#paint16_linear_141_3)"/>
<path d="M1440.44 447.108H1298.42V449.331H1440.44V447.108Z" fill="#8C7269"/>
<path d="M1440.44 436.591H1298.42V438.814H1440.44V436.591Z" fill="#8C7269"/>
<path d="M1395.27 437.703H1384.54V448.22H1395.27V437.703Z" fill="#8C7269"/>
<path d="M1414.16 437.703H1403.43V448.22H1414.16V437.703Z" fill="#8C7269"/>
<path d="M1419.59 437.703H1416.89V448.22H1419.59V437.703Z" fill="#8C7269"/>
<path d="M1400.65 437.703H1397.96V448.22H1400.65V437.703Z" fill="#8C7269"/>
<path d="M1376.42 437.703H1365.69V448.22H1376.42V437.703Z" fill="#8C7269"/>
<path d="M1381.85 437.703H1379.16V448.22H1381.85V437.703Z" fill="#8C7269"/>
<path d="M1362.92 437.703H1360.22V448.22H1362.92V437.703Z" fill="#8C7269"/>
<path d="M1357.53 437.703H1346.8V448.22H1357.53V437.703Z" fill="#8C7269"/>
<path d="M1344.07 437.703H1341.38V448.22H1344.07V437.703Z" fill="#8C7269"/>
<path d="M1338.68 437.703H1327.96V448.22H1338.68V437.703Z" fill="#8C7269"/>
<path d="M1325.22 437.703H1322.53V448.22H1325.22V437.703Z" fill="#8C7269"/>
<path d="M1414.16 438.814H1403.43V439.926H1414.16V438.814Z" fill="#715956"/>
<path d="M1400.65 438.814H1397.96V439.926H1400.65V438.814Z" fill="#715956"/>
<path d="M1395.27 438.814H1384.54V439.926H1395.27V438.814Z" fill="#715956"/>
<path d="M1381.85 438.814H1379.16V439.926H1381.85V438.814Z" fill="#715956"/>
<path d="M1376.42 438.814H1365.69V439.926H1376.42V438.814Z" fill="#715956"/>
<path d="M1362.92 438.814H1360.22V439.926H1362.92V438.814Z" fill="#715956"/>
<path d="M1357.53 438.814H1346.8V439.926H1357.53V438.814Z" fill="#715956"/>
<path d="M1338.68 438.814H1327.96V439.926H1338.68V438.814Z" fill="#715956"/>
<path d="M1344.07 438.814H1341.38V439.926H1344.07V438.814Z" fill="#715956"/>
<path d="M1376.42 445.997H1365.69V447.108H1376.42V445.997Z" fill="#715956"/>
<path d="M1362.92 445.997H1360.22V447.108H1362.92V445.997Z" fill="#715956"/>
<path d="M1357.53 445.997H1346.8V447.108H1357.53V445.997Z" fill="#715956"/>
<path d="M1338.68 445.997H1327.96V447.108H1338.68V445.997Z" fill="#715956"/>
<path d="M1344.07 445.997H1341.38V447.108H1344.07V445.997Z" fill="#715956"/>
<path d="M1325.22 445.997H1322.53V447.108H1325.22V445.997Z" fill="#715956"/>
<path d="M1325.22 438.814H1322.53V439.926H1325.22V438.814Z" fill="#715956"/>
<path d="M1414.16 445.997H1403.43V447.108H1414.16V445.997Z" fill="#715956"/>
<path d="M1400.65 445.997H1397.96V447.108H1400.65V445.997Z" fill="#715956"/>
<path d="M1419.59 438.814H1416.89V439.926H1419.59V438.814Z" fill="#715956"/>
<path d="M1419.59 445.997H1416.89V447.108H1419.59V445.997Z" fill="#715956"/>
<path d="M1395.27 445.997H1384.54V447.108H1395.27V445.997Z" fill="#715956"/>
<path d="M1381.85 445.997H1379.16V447.108H1381.85V445.997Z" fill="#715956"/>
<path d="M1402.66 548.388H1399.97V579.512H1402.66V548.388Z" fill="#8C7269"/>
<path d="M1402.66 548.388H1401.29V579.512H1402.66V548.388Z" fill="#715956"/>
<path d="M1402.01 572.853L1510.4 572.853L1510.4 570.63L1402.01 570.63L1402.01 572.853Z" fill="#8C7269"/>
<path d="M1402.01 550.585L1510.4 550.585L1510.4 548.362L1402.01 548.362L1402.01 550.585Z" fill="#8C7269"/>
<path d="M1424.25 571.745L1434.97 571.745L1434.97 549.471L1424.25 549.471L1424.25 571.745Z" fill="#8C7269"/>
<path d="M1405.41 571.745L1416.13 571.745L1416.13 549.471L1405.41 549.471L1405.41 571.745Z" fill="#8C7269"/>
<path d="M1418.88 571.745L1421.58 571.745L1421.58 549.471L1418.88 549.471L1418.88 571.745Z" fill="#8C7269"/>
<path d="M1443.13 571.745L1453.85 571.745L1453.85 549.471L1443.13 549.471L1443.13 571.745Z" fill="#8C7269"/>
<path d="M1437.68 571.745L1440.38 571.745L1440.38 549.471L1437.68 549.471L1437.68 571.745Z" fill="#8C7269"/>
<path d="M1456.6 571.745L1459.29 571.745L1459.29 549.471L1456.6 549.471L1456.6 571.745Z" fill="#8C7269"/>
<path d="M1462.01 571.745L1472.73 571.745L1472.73 549.471L1462.01 549.471L1462.01 571.745Z" fill="#8C7269"/>
<path d="M1475.48 571.745L1478.17 571.745L1478.17 549.471L1475.48 549.471L1475.48 571.745Z" fill="#8C7269"/>
<path d="M1480.84 571.745L1491.57 571.745L1491.57 549.471L1480.84 549.471L1480.84 571.745Z" fill="#8C7269"/>
<path d="M1494.32 571.745L1497.01 571.745L1497.01 549.471L1494.32 549.471L1494.32 571.745Z" fill="#8C7269"/>
<path d="M1405.41 551.716L1416.13 551.716L1416.13 550.605L1405.41 550.605L1405.41 551.716Z" fill="#715956"/>
<path d="M1418.88 551.716L1421.58 551.716L1421.58 550.605L1418.88 550.605L1418.88 551.716Z" fill="#715956"/>
<path d="M1424.25 551.716L1434.97 551.716L1434.97 550.605L1424.25 550.605L1424.25 551.716Z" fill="#715956"/>
<path d="M1437.68 551.716L1440.38 551.716L1440.38 550.605L1437.68 550.605L1437.68 551.716Z" fill="#715956"/>
<path d="M1443.13 551.716L1453.85 551.716L1453.85 550.605L1443.13 550.605L1443.13 551.716Z" fill="#715956"/>
<path d="M1456.6 551.716L1459.29 551.716L1459.29 550.605L1456.6 550.605L1456.6 551.716Z" fill="#715956"/>
<path d="M1462.01 551.716L1472.73 551.716L1472.73 550.605L1462.01 550.605L1462.01 551.716Z" fill="#715956"/>
<path d="M1480.84 551.716L1491.57 551.716L1491.57 550.605L1480.84 550.605L1480.84 551.716Z" fill="#715956"/>
<path d="M1475.48 551.716L1478.18 551.716L1478.18 550.605L1475.48 550.605L1475.48 551.716Z" fill="#715956"/>
<path d="M1443.13 570.653L1453.85 570.653L1453.85 569.542L1443.13 569.542L1443.13 570.653Z" fill="#715956"/>
<path d="M1456.6 570.653L1459.29 570.653L1459.29 569.542L1456.6 569.542L1456.6 570.653Z" fill="#715956"/>
<path d="M1462.01 570.653L1472.73 570.653L1472.73 569.542L1462.01 569.542L1462.01 570.653Z" fill="#715956"/>
<path d="M1480.84 570.653L1491.57 570.653L1491.57 569.542L1480.84 569.542L1480.84 570.653Z" fill="#715956"/>
<path d="M1475.48 570.653L1478.18 570.653L1478.18 569.542L1475.48 569.542L1475.48 570.653Z" fill="#715956"/>
<path d="M1494.32 570.653L1497.01 570.653L1497.01 569.542L1494.32 569.542L1494.32 570.653Z" fill="#715956"/>
<path d="M1405.41 570.653L1416.13 570.653L1416.13 569.542L1405.41 569.542L1405.41 570.653Z" fill="#715956"/>
<path d="M1418.88 570.653L1421.58 570.653L1421.58 569.542L1418.88 569.542L1418.88 570.653Z" fill="#715956"/>
<path d="M1424.25 570.653L1434.97 570.653L1434.97 569.542L1424.25 569.542L1424.25 570.653Z" fill="#715956"/>
<path d="M1437.68 570.653L1440.38 570.653L1440.38 569.542L1437.68 569.542L1437.68 570.653Z" fill="#715956"/>
<path opacity="0.3" d="M1764.27 588.49H1536.43V680.321H1764.27V588.49Z" fill="url(#paint17_linear_141_3)"/>
<path opacity="0.3" d="M1764.27 597.596H1523.05L1517.33 588.49H1764.27V597.596Z" fill="url(#paint18_linear_141_3)"/>
<path opacity="0.3" d="M1368.47 330.523L1219.57 588.49V600.888H1230.04L1377.28 345.786L1368.47 330.523Z" fill="url(#paint19_linear_141_3)"/>
<path d="M1764.27 588.489L1596.26 297.433H1368.47L1536.43 588.489H1764.27Z" fill="#634C4C"/>
<path d="M1406.68 330.566C1402.83 330.566 1397.87 327.445 1395.65 323.554L1390.52 314.662H1404.5L1409.63 323.554C1411.85 327.402 1410.52 330.566 1406.68 330.566Z" fill="#715956"/>
<path d="M1430.31 330.566C1426.47 330.566 1421.51 327.445 1419.29 323.554L1414.16 314.662H1428.13L1433.26 323.554C1435.48 327.402 1434.16 330.566 1430.31 330.566Z" fill="#715956"/>
<path d="M1453.95 330.566C1450.1 330.566 1445.14 327.445 1442.92 323.554L1437.79 314.662H1451.72L1456.85 323.554C1459.12 327.402 1457.79 330.566 1453.95 330.566Z" fill="#715956"/>
<path d="M1477.54 330.566C1473.69 330.566 1468.73 327.445 1466.51 323.554L1461.38 314.662H1475.36L1480.49 323.554C1482.75 327.402 1481.43 330.566 1477.54 330.566Z" fill="#715956"/>
<path d="M1501.17 330.566C1497.33 330.566 1492.37 327.445 1490.15 323.554L1485.02 314.662H1498.99L1504.12 323.554C1506.34 327.402 1505.02 330.566 1501.17 330.566Z" fill="#715956"/>
<path d="M1524.81 330.566C1520.96 330.566 1516 327.445 1513.78 323.554L1508.65 314.662H1522.63L1527.75 323.554C1529.98 327.402 1528.65 330.566 1524.81 330.566Z" fill="#715956"/>
<path d="M1548.44 330.566C1544.59 330.566 1539.64 327.445 1537.41 323.554L1532.29 314.662H1546.26L1551.39 323.554C1553.61 327.402 1552.29 330.566 1548.44 330.566Z" fill="#715956"/>
<path d="M1572.03 330.566C1568.19 330.566 1563.23 327.445 1561.01 323.554L1555.88 314.662H1569.85L1574.98 323.554C1577.25 327.402 1575.92 330.566 1572.03 330.566Z" fill="#715956"/>
<path d="M1595.67 330.566C1591.82 330.566 1586.86 327.445 1584.64 323.554L1579.51 314.662H1593.49L1598.61 323.554C1600.84 327.402 1599.51 330.566 1595.67 330.566Z" fill="#715956"/>
<path d="M1422.45 358.055C1418.6 358.055 1413.64 354.935 1411.42 351.044L1406.29 342.152H1420.27L1425.4 351.044C1427.62 354.892 1426.3 358.055 1422.45 358.055Z" fill="#715956"/>
<path d="M1446.04 358.055C1442.19 358.055 1437.24 354.935 1435.01 351.044L1429.89 342.152H1443.86L1448.99 351.044C1451.25 354.892 1449.93 358.055 1446.04 358.055Z" fill="#715956"/>
<path d="M1469.67 358.055C1465.83 358.055 1460.87 354.935 1458.65 351.044L1453.52 342.152H1467.49L1472.62 351.044C1474.85 354.892 1473.52 358.055 1469.67 358.055Z" fill="#715956"/>
<path d="M1493.31 358.055C1489.46 358.055 1484.5 354.935 1482.28 351.044L1477.15 342.152H1491.13L1496.26 351.044C1498.48 354.892 1497.15 358.055 1493.31 358.055Z" fill="#715956"/>
<path d="M1516.94 358.055C1513.1 358.055 1508.14 354.935 1505.92 351.044L1500.79 342.152H1514.76L1519.89 351.044C1522.11 354.892 1520.79 358.055 1516.94 358.055Z" fill="#715956"/>
<path d="M1540.53 358.055C1536.69 358.055 1531.73 354.935 1529.51 351.044L1524.38 342.152H1538.35L1543.48 351.044C1545.75 354.892 1544.42 358.055 1540.53 358.055Z" fill="#715956"/>
<path d="M1564.17 358.055C1560.32 358.055 1555.36 354.935 1553.14 351.044L1548.01 342.152H1561.99L1567.12 351.044C1569.34 354.892 1568.01 358.055 1564.17 358.055Z" fill="#715956"/>
<path d="M1587.8 358.055C1583.96 358.055 1579 354.935 1576.78 351.044L1571.65 342.152H1585.62L1590.75 351.044C1592.97 354.892 1591.65 358.055 1587.8 358.055Z" fill="#715956"/>
<path d="M1611.44 358.055C1607.59 358.055 1602.63 354.935 1600.41 351.044L1595.28 342.152H1609.26L1614.38 351.044C1616.61 354.892 1615.28 358.055 1611.44 358.055Z" fill="#715956"/>
<path d="M1438.18 385.545C1434.33 385.545 1429.37 382.424 1427.15 378.534L1422.02 369.641H1436L1441.13 378.534C1443.35 382.424 1442.02 385.545 1438.18 385.545Z" fill="#715956"/>
<path d="M1461.81 385.545C1457.96 385.545 1453.01 382.424 1450.78 378.534L1445.66 369.641H1459.63L1464.76 378.534C1466.98 382.424 1465.66 385.545 1461.81 385.545Z" fill="#715956"/>
<path d="M1485.44 385.545C1481.6 385.545 1476.64 382.424 1474.42 378.534L1469.29 369.641H1483.26L1488.39 378.534C1490.62 382.424 1489.29 385.545 1485.44 385.545Z" fill="#715956"/>
<path d="M1509.04 385.545C1505.19 385.545 1500.23 382.424 1498.01 378.534L1492.88 369.641H1506.86L1511.98 378.534C1514.25 382.424 1512.92 385.545 1509.04 385.545Z" fill="#715956"/>
<path d="M1532.67 385.545C1528.82 385.545 1523.87 382.424 1521.64 378.534L1516.51 369.641H1530.49L1535.62 378.534C1537.84 382.424 1536.52 385.545 1532.67 385.545Z" fill="#715956"/>
<path d="M1556.3 385.545C1552.46 385.545 1547.5 382.424 1545.28 378.534L1540.15 369.641H1554.12L1559.25 378.534C1561.48 382.424 1560.15 385.545 1556.3 385.545Z" fill="#715956"/>
<path d="M1579.94 385.545C1576.09 385.545 1571.13 382.424 1568.91 378.534L1563.78 369.641H1577.76L1582.89 378.534C1585.11 382.424 1583.78 385.545 1579.94 385.545Z" fill="#715956"/>
<path d="M1603.53 385.545C1599.68 385.545 1594.73 382.424 1592.5 378.534L1587.37 369.641H1601.35L1606.48 378.534C1608.74 382.424 1607.42 385.545 1603.53 385.545Z" fill="#715956"/>
<path d="M1627.16 385.545C1623.32 385.545 1618.36 382.424 1616.14 378.534L1611.01 369.641H1624.98L1630.11 378.534C1632.33 382.424 1631.01 385.545 1627.16 385.545Z" fill="#715956"/>
<path d="M1453.95 413.035C1450.1 413.035 1445.14 409.914 1442.92 406.023L1437.79 397.131H1451.72L1456.85 406.023C1459.12 409.914 1457.79 413.035 1453.95 413.035Z" fill="#715956"/>
<path d="M1477.54 413.035C1473.69 413.035 1468.73 409.914 1466.51 406.023L1461.38 397.131H1475.36L1480.49 406.023C1482.75 409.914 1481.43 413.035 1477.54 413.035Z" fill="#715956"/>
<path d="M1501.17 413.035C1497.33 413.035 1492.37 409.914 1490.15 406.023L1485.02 397.131H1498.99L1504.12 406.023C1506.34 409.914 1505.02 413.035 1501.17 413.035Z" fill="#715956"/>
<path d="M1524.81 413.035C1520.96 413.035 1516 409.914 1513.78 406.023L1508.65 397.131H1522.63L1527.75 406.023C1529.98 409.914 1528.65 413.035 1524.81 413.035Z" fill="#715956"/>
<path d="M1548.44 413.035C1544.59 413.035 1539.64 409.914 1537.41 406.023L1532.29 397.131H1546.26L1551.39 406.023C1553.61 409.914 1552.29 413.035 1548.44 413.035Z" fill="#715956"/>
<path d="M1572.03 413.035C1568.18 413.035 1563.23 409.914 1561 406.023L1555.88 397.131H1569.85L1574.98 406.023C1577.24 409.914 1575.92 413.035 1572.03 413.035Z" fill="#715956"/>
<path d="M1595.67 413.035C1591.82 413.035 1586.86 409.914 1584.64 406.023L1579.51 397.131H1593.49L1598.61 406.023C1600.84 409.914 1599.51 413.035 1595.67 413.035Z" fill="#715956"/>
<path d="M1619.3 413.035C1615.45 413.035 1610.5 409.914 1608.27 406.023L1603.14 397.131H1617.12L1622.25 406.023C1624.47 409.914 1623.15 413.035 1619.3 413.035Z" fill="#715956"/>
<path d="M1642.93 413.035C1639.09 413.035 1634.13 409.914 1631.91 406.023L1626.78 397.131H1640.75L1645.88 406.023C1648.1 409.914 1646.78 413.035 1642.93 413.035Z" fill="#715956"/>
<path d="M1469.67 440.524C1465.83 440.524 1460.87 437.404 1458.65 433.513L1453.52 424.621H1467.49L1472.62 433.513C1474.85 437.404 1473.52 440.524 1469.67 440.524Z" fill="#715956"/>
<path d="M1493.31 440.524C1489.46 440.524 1484.5 437.404 1482.28 433.513L1477.15 424.621H1491.13L1496.26 433.513C1498.48 437.404 1497.15 440.524 1493.31 440.524Z" fill="#715956"/>
<path d="M1516.94 440.524C1513.1 440.524 1508.14 437.404 1505.92 433.513L1500.79 424.621H1514.76L1519.89 433.513C1522.11 437.404 1520.79 440.524 1516.94 440.524Z" fill="#715956"/>
<path d="M1540.53 440.524C1536.69 440.524 1531.73 437.404 1529.51 433.513L1524.38 424.621H1538.35L1543.48 433.513C1545.75 437.404 1544.42 440.524 1540.53 440.524Z" fill="#715956"/>
<path d="M1564.17 440.524C1560.32 440.524 1555.36 437.404 1553.14 433.513L1548.01 424.621H1561.99L1567.12 433.513C1569.34 437.404 1568.01 440.524 1564.17 440.524Z" fill="#715956"/>
<path d="M1587.8 440.524C1583.95 440.524 1579 437.404 1576.78 433.513L1571.65 424.621H1585.62L1590.75 433.513C1592.97 437.404 1591.65 440.524 1587.8 440.524Z" fill="#715956"/>
<path d="M1611.44 440.524C1607.59 440.524 1602.63 437.404 1600.41 433.513L1595.28 424.621H1609.26L1614.38 433.513C1616.61 437.404 1615.28 440.524 1611.44 440.524Z" fill="#715956"/>
<path d="M1635.03 440.524C1631.18 440.524 1626.22 437.404 1624 433.513L1618.87 424.621H1632.85L1637.98 433.513C1640.24 437.404 1638.92 440.524 1635.03 440.524Z" fill="#715956"/>
<path d="M1658.66 440.524C1654.81 440.524 1649.86 437.404 1647.63 433.513L1642.51 424.621H1656.48L1661.61 433.513C1663.83 437.404 1662.51 440.524 1658.66 440.524Z" fill="#715956"/>
<path d="M1485.44 468.057C1481.6 468.057 1476.64 464.936 1474.42 461.045L1469.29 452.153H1483.26L1488.39 461.045C1490.62 464.893 1489.29 468.057 1485.44 468.057Z" fill="#715956"/>
<path d="M1509.04 468.057C1505.19 468.057 1500.23 464.936 1498.01 461.045L1492.88 452.153H1506.86L1511.98 461.045C1514.25 464.893 1512.92 468.057 1509.04 468.057Z" fill="#715956"/>
<path d="M1532.67 468.057C1528.82 468.057 1523.87 464.936 1521.64 461.045L1516.52 452.153H1530.49L1535.62 461.045C1537.84 464.893 1536.52 468.057 1532.67 468.057Z" fill="#715956"/>
<path d="M1556.3 468.057C1552.46 468.057 1547.5 464.936 1545.28 461.045L1540.15 452.153H1554.12L1559.25 461.045C1561.48 464.893 1560.15 468.057 1556.3 468.057Z" fill="#715956"/>
<path d="M1579.94 468.057C1576.09 468.057 1571.13 464.936 1568.91 461.045L1563.78 452.153H1577.76L1582.89 461.045C1585.11 464.893 1583.78 468.057 1579.94 468.057Z" fill="#715956"/>
<path d="M1603.53 468.057C1599.68 468.057 1594.73 464.936 1592.5 461.045L1587.37 452.153H1601.35L1606.48 461.045C1608.74 464.893 1607.42 468.057 1603.53 468.057Z" fill="#715956"/>
<path d="M1627.16 468.057C1623.32 468.057 1618.36 464.936 1616.14 461.045L1611.01 452.153H1624.98L1630.11 461.045C1632.33 464.893 1631.01 468.057 1627.16 468.057Z" fill="#715956"/>
<path d="M1650.8 468.057C1646.95 468.057 1641.99 464.936 1639.77 461.045L1634.64 452.153H1648.62L1653.75 461.045C1655.97 464.893 1654.64 468.057 1650.8 468.057Z" fill="#715956"/>
<path d="M1674.43 468.057C1670.58 468.057 1665.63 464.936 1663.4 461.045L1658.28 452.153H1672.25L1677.38 461.045C1679.6 464.893 1678.28 468.057 1674.43 468.057Z" fill="#715956"/>
<path d="M1501.17 495.546C1497.33 495.546 1492.37 492.426 1490.15 488.535L1485.02 479.643H1498.99L1504.12 488.535C1506.34 492.426 1505.02 495.546 1501.17 495.546Z" fill="#715956"/>
<path d="M1524.81 495.546C1520.96 495.546 1516 492.426 1513.78 488.535L1508.65 479.643H1522.63L1527.76 488.535C1529.98 492.426 1528.65 495.546 1524.81 495.546Z" fill="#715956"/>
<path d="M1548.44 495.546C1544.59 495.546 1539.64 492.426 1537.41 488.535L1532.29 479.643H1546.26L1551.39 488.535C1553.61 492.426 1552.29 495.546 1548.44 495.546Z" fill="#715956"/>
<path d="M1572.03 495.546C1568.19 495.546 1563.23 492.426 1561.01 488.535L1555.88 479.643H1569.85L1574.98 488.535C1577.25 492.426 1575.92 495.546 1572.03 495.546Z" fill="#715956"/>
<path d="M1595.67 495.546C1591.82 495.546 1586.86 492.426 1584.64 488.535L1579.51 479.643H1593.49L1598.61 488.535C1600.84 492.426 1599.51 495.546 1595.67 495.546Z" fill="#715956"/>
<path d="M1619.3 495.546C1615.45 495.546 1610.5 492.426 1608.27 488.535L1603.14 479.643H1617.12L1622.25 488.535C1624.47 492.426 1623.15 495.546 1619.3 495.546Z" fill="#715956"/>
<path d="M1642.93 495.546C1639.09 495.546 1634.13 492.426 1631.91 488.535L1626.78 479.643H1640.75L1645.88 488.535C1648.1 492.426 1646.78 495.546 1642.93 495.546Z" fill="#715956"/>
<path d="M1666.53 495.546C1662.68 495.546 1657.72 492.426 1655.5 488.535L1650.37 479.643H1664.35L1669.47 488.535C1671.74 492.426 1670.41 495.546 1666.53 495.546Z" fill="#715956"/>
<path d="M1690.16 495.546C1686.31 495.546 1681.35 492.426 1679.13 488.535L1674 479.643H1687.98L1693.11 488.535C1695.33 492.426 1694.01 495.546 1690.16 495.546Z" fill="#715956"/>
<path d="M1516.94 523.036C1513.1 523.036 1508.14 519.915 1505.92 516.025L1500.79 507.132H1514.76L1519.89 516.025C1522.11 519.915 1520.79 523.036 1516.94 523.036Z" fill="#715956"/>
<path d="M1540.53 523.036C1536.69 523.036 1531.73 519.915 1529.51 516.025L1524.38 507.132H1538.35L1543.48 516.025C1545.75 519.915 1544.42 523.036 1540.53 523.036Z" fill="#715956"/>
<path d="M1564.17 523.036C1560.32 523.036 1555.36 519.915 1553.14 516.025L1548.01 507.132H1561.99L1567.12 516.025C1569.34 519.915 1568.01 523.036 1564.17 523.036Z" fill="#715956"/>
<path d="M1587.8 523.036C1583.95 523.036 1579 519.915 1576.78 516.025L1571.65 507.132H1585.62L1590.75 516.025C1592.97 519.915 1591.65 523.036 1587.8 523.036Z" fill="#715956"/>
<path d="M1611.44 523.036C1607.59 523.036 1602.63 519.915 1600.41 516.025L1595.28 507.132H1609.26L1614.38 516.025C1616.61 519.915 1615.28 523.036 1611.44 523.036Z" fill="#715956"/>
<path d="M1635.03 523.036C1631.18 523.036 1626.22 519.915 1624 516.025L1618.87 507.132H1632.85L1637.98 516.025C1640.24 519.915 1638.92 523.036 1635.03 523.036Z" fill="#715956"/>
<path d="M1658.66 523.036C1654.81 523.036 1649.86 519.915 1647.63 516.025L1642.51 507.132H1656.48L1661.61 516.025C1663.83 519.915 1662.51 523.036 1658.66 523.036Z" fill="#715956"/>
<path d="M1682.3 523.036C1678.45 523.036 1673.49 519.915 1671.27 516.025L1666.14 507.132H1680.12L1685.24 516.025C1687.47 519.915 1686.14 523.036 1682.3 523.036Z" fill="#715956"/>
<path d="M1705.93 523.036C1702.08 523.036 1697.12 519.915 1694.9 516.025L1689.77 507.132H1703.75L1708.88 516.025C1711.1 519.915 1709.78 523.036 1705.93 523.036Z" fill="#715956"/>
<path d="M1532.67 550.526C1528.82 550.526 1523.87 547.405 1521.64 543.514L1516.51 534.622H1530.49L1535.62 543.514C1537.84 547.405 1536.52 550.526 1532.67 550.526Z" fill="#715956"/>
<path d="M1556.3 550.526C1552.46 550.526 1547.5 547.405 1545.28 543.514L1540.15 534.622H1554.12L1559.25 543.514C1561.47 547.405 1560.15 550.526 1556.3 550.526Z" fill="#715956"/>
<path d="M1579.94 550.526C1576.09 550.526 1571.13 547.405 1568.91 543.514L1563.78 534.622H1577.76L1582.89 543.514C1585.11 547.405 1583.78 550.526 1579.94 550.526Z" fill="#715956"/>
<path d="M1603.53 550.526C1599.68 550.526 1594.72 547.405 1592.5 543.514L1587.37 534.622H1601.35L1606.48 543.514C1608.74 547.405 1607.42 550.526 1603.53 550.526Z" fill="#715956"/>
<path d="M1627.16 550.526C1623.32 550.526 1618.36 547.405 1616.14 543.514L1611.01 534.622H1624.98L1630.11 543.514C1632.33 547.405 1631.01 550.526 1627.16 550.526Z" fill="#715956"/>
<path d="M1650.8 550.526C1646.95 550.526 1641.99 547.405 1639.77 543.514L1634.64 534.622H1648.62L1653.75 543.514C1655.97 547.405 1654.64 550.526 1650.8 550.526Z" fill="#715956"/>
<path d="M1674.43 550.526C1670.58 550.526 1665.63 547.405 1663.4 543.514L1658.28 534.622H1672.25L1677.38 543.514C1679.6 547.405 1678.28 550.526 1674.43 550.526Z" fill="#715956"/>
<path d="M1698.02 550.526C1694.18 550.526 1689.22 547.405 1687 543.514L1681.87 534.622H1695.84L1700.97 543.514C1703.24 547.405 1701.91 550.526 1698.02 550.526Z" fill="#715956"/>
<path d="M1721.66 550.526C1717.81 550.526 1712.85 547.405 1710.63 543.514L1705.5 534.622H1719.48L1724.61 543.514C1726.83 547.405 1725.5 550.526 1721.66 550.526Z" fill="#715956"/>
<path d="M1548.44 578.015C1544.59 578.015 1539.64 574.895 1537.41 571.004L1532.29 562.112H1546.26L1551.39 571.004C1553.61 574.895 1552.29 578.015 1548.44 578.015Z" fill="#715956"/>
<path d="M1572.03 578.015C1568.19 578.015 1563.23 574.895 1561.01 571.004L1555.88 562.112H1569.85L1574.98 571.004C1577.25 574.895 1575.92 578.015 1572.03 578.015Z" fill="#715956"/>
<path d="M1595.67 578.015C1591.82 578.015 1586.86 574.895 1584.64 571.004L1579.51 562.112H1593.49L1598.61 571.004C1600.84 574.895 1599.51 578.015 1595.67 578.015Z" fill="#715956"/>
<path d="M1619.3 578.015C1615.45 578.015 1610.5 574.895 1608.27 571.004L1603.14 562.112H1617.12L1622.25 571.004C1624.47 574.895 1623.15 578.015 1619.3 578.015Z" fill="#715956"/>
<path d="M1642.93 578.015C1639.09 578.015 1634.13 574.895 1631.91 571.004L1626.78 562.112H1640.75L1645.88 571.004C1648.1 574.895 1646.78 578.015 1642.93 578.015Z" fill="#715956"/>
<path d="M1666.53 578.015C1662.68 578.015 1657.72 574.895 1655.5 571.004L1650.37 562.112H1664.35L1669.47 571.004C1671.74 574.895 1670.41 578.015 1666.53 578.015Z" fill="#715956"/>
<path d="M1690.16 578.015C1686.31 578.015 1681.35 574.895 1679.13 571.004L1674 562.112H1687.98L1693.11 571.004C1695.33 574.895 1694.01 578.015 1690.16 578.015Z" fill="#715956"/>
<path d="M1713.79 578.015C1709.95 578.015 1704.99 574.895 1702.77 571.004L1697.64 562.112H1711.61L1716.74 571.004C1718.96 574.895 1717.64 578.015 1713.79 578.015Z" fill="#715956"/>
<path d="M1737.43 578.015C1733.58 578.015 1728.62 574.895 1726.4 571.004L1721.27 562.112H1735.25L1740.38 571.004C1742.6 574.895 1741.27 578.015 1737.43 578.015Z" fill="#715956"/>
<path d="M1368.47 297.433L1382.96 322.571H1610.79L1596.26 297.433H1368.47Z" fill="url(#paint20_linear_141_3)"/>
<path d="M1226.58 588.49L1372.02 336.508L1363.21 321.203L1214.32 579.17V588.49H1226.58Z" fill="#634C4C"/>
<path d="M1536.43 588.489H1517.33L1368.47 330.523L1219.57 588.489H1200.47L1368.47 297.433L1536.43 588.489Z" fill="#8C7269"/>
<path d="M1527.63 588.49H1526.64L1368.47 314.405L1210.26 588.49H1209.27L1368.47 312.695L1368.81 313.337L1527.63 588.49Z" fill="#F7B86E"/>
<path d="M1870 689L1736.7 555.656C1729.61 548.559 1719.99 544.583 1709.95 544.583H1680.46C1670.41 544.583 1660.8 548.559 1653.7 555.656L1617.16 592.209C1610.07 599.306 1600.45 603.282 1590.41 603.282H1526.52C1516.47 603.282 1506.86 607.258 1499.76 614.355C1492.67 621.452 1483.05 625.427 1473.01 625.427H1262.74V688.957H1870V689Z" fill="url(#paint21_linear_141_3)"/>
<path d="M1499.8 620.682C1506.9 613.585 1516.51 609.609 1526.56 609.609H1590.45C1600.49 609.609 1610.11 605.633 1617.21 598.536L1653.75 561.983C1660.84 554.886 1670.46 550.91 1680.5 550.91H1709.99C1720.03 550.91 1729.65 554.886 1736.74 561.983L1863.76 689.043H1870.04L1736.74 555.699C1729.65 548.602 1720.03 544.626 1709.99 544.626H1680.5C1670.46 544.626 1660.84 548.602 1653.75 555.699L1617.21 592.252C1610.11 599.349 1600.49 603.325 1590.45 603.325H1526.56C1516.51 603.325 1506.9 607.301 1499.8 614.397C1492.71 621.494 1483.09 625.47 1473.05 625.47H1262.74V631.755H1473.09C1483.14 631.755 1492.75 627.779 1499.8 620.682Z" fill="#6B9D59"/>
<path d="M1426.77 657.577C1422.36 661.981 1415.27 661.981 1415.27 661.981C1415.27 661.981 1415.27 654.884 1419.67 650.48C1424.07 646.077 1431.17 646.077 1431.17 646.077C1431.17 646.077 1431.17 653.216 1426.77 657.577Z" fill="#408052"/>
<path d="M1729.26 595.971C1725.63 599.605 1719.82 599.605 1719.82 599.605C1719.82 599.605 1719.82 593.748 1723.45 590.157C1727.08 586.523 1732.9 586.523 1732.9 586.523C1732.9 586.523 1732.9 592.337 1729.26 595.971Z" fill="#97B960"/>
<path d="M1758.11 605.12C1763.62 610.635 1763.62 619.528 1763.62 619.528C1763.62 619.528 1754.74 619.528 1749.22 614.013C1743.71 608.498 1743.71 599.605 1743.71 599.605C1743.71 599.605 1752.64 599.605 1758.11 605.12Z" fill="#568E55"/>
<path d="M1468.14 653.387C1474.72 659.971 1474.76 670.659 1474.76 670.659C1474.76 670.659 1464.08 670.617 1457.49 664.033C1450.91 657.449 1450.87 646.761 1450.87 646.761C1450.87 646.761 1461.55 646.804 1468.14 653.387Z" fill="#408052"/>
<path d="M1702.64 581.307C1696.06 587.891 1685.37 587.934 1685.37 587.934C1685.37 587.934 1685.41 577.246 1692 570.662C1698.58 564.078 1709.26 564.035 1709.26 564.035C1709.26 564.035 1709.22 574.723 1702.64 581.307Z" fill="#408052"/>
<path d="M1786.92 689L1771.57 673.652C1765.68 667.752 1757.68 664.417 1749.31 664.417C1740.97 664.417 1732.94 661.083 1727.04 655.183L1708.28 636.415C1702.38 630.515 1694.39 627.18 1686.01 627.18H1658.92C1650.58 627.18 1642.55 630.515 1636.65 636.415L1626.69 646.376C1620.8 652.276 1612.8 655.611 1604.43 655.611H1598.14C1589.81 655.611 1581.78 658.945 1575.88 664.845L1551.73 689H1786.92V689Z" fill="url(#paint22_linear_141_3)"/>
<path d="M1576.01 672.027C1581.9 666.128 1589.9 662.793 1598.27 662.793H1604.56C1612.89 662.793 1620.92 659.458 1626.82 653.558L1636.78 643.597C1642.68 637.697 1650.67 634.363 1659.05 634.363H1686.14C1694.48 634.363 1702.51 637.697 1708.41 643.597L1727.17 662.365C1733.07 668.265 1741.06 671.6 1749.44 671.6C1757.77 671.6 1765.81 674.934 1771.7 680.834L1779.87 689H1787.05L1771.7 673.652C1765.81 667.752 1757.81 664.417 1749.44 664.417C1741.1 664.417 1733.07 661.083 1727.17 655.183L1708.41 636.415C1702.51 630.515 1694.52 627.18 1686.14 627.18H1659.05C1650.71 627.18 1642.68 630.515 1636.78 636.415L1626.82 646.376C1620.92 652.276 1612.93 655.611 1604.56 655.611H1598.27C1589.94 655.611 1581.9 658.945 1576.01 664.845L1551.86 689H1559.04L1576.01 672.027Z" fill="#81AB5C"/>
<path d="M1722.77 680.834C1719.18 684.425 1713.37 684.425 1713.37 684.425C1713.37 684.425 1713.37 678.611 1716.96 675.02C1720.55 671.429 1726.36 671.429 1726.36 671.429C1726.36 671.429 1726.36 677.243 1722.77 680.834Z" fill="#81AB5C"/>
<path d="M1608.79 671.814C1613.06 676.089 1613.06 682.972 1613.06 682.972C1613.06 682.972 1606.14 682.972 1601.91 678.697C1597.63 674.421 1597.63 667.538 1597.63 667.538C1597.63 667.538 1604.51 667.538 1608.79 671.814Z" fill="#6B9D59"/>
<path d="M1683.71 672.327C1687.34 675.961 1687.34 681.775 1687.34 681.775C1687.34 681.775 1681.48 681.775 1677.89 678.141C1674.26 674.507 1674.26 668.693 1674.26 668.693C1674.26 668.693 1680.12 668.693 1683.71 672.327Z" fill="#AFC97A"/>
<path d="M1701.74 653.687C1707.25 659.202 1707.25 668.094 1707.25 668.094C1707.25 668.094 1698.36 668.094 1692.85 662.579C1687.34 657.064 1687.34 648.172 1687.34 648.172C1687.34 648.172 1696.23 648.172 1701.74 653.687Z" fill="#6B9D59"/>
<path d="M1655.67 671.301C1649.09 677.884 1638.4 677.927 1638.4 677.927C1638.4 677.927 1638.45 667.239 1645.03 660.655C1651.61 654.071 1662.29 654.029 1662.29 654.029C1662.29 654.029 1662.25 664.717 1655.67 671.301Z" fill="#408052"/>
<path d="M1097 689L1162.94 623.033C1174.36 611.619 1189.78 605.206 1205.94 605.206H1234.1C1250.22 605.206 1265.69 611.619 1277.1 623.033C1288.51 634.448 1303.94 640.861 1320.09 640.861H1338.43C1354.54 640.861 1370.01 647.274 1381.42 658.689L1411.59 688.872L1097 689Z" fill="url(#paint23_linear_141_3)"/>
<path d="M1162.94 629.446C1174.36 618.031 1189.78 611.619 1205.94 611.619H1234.1C1250.22 611.619 1265.69 618.031 1277.1 629.446C1288.51 640.861 1303.94 647.274 1320.09 647.274H1338.43C1354.54 647.274 1370.01 653.687 1381.42 665.102L1405.18 688.872H1411.59L1381.42 658.689C1370.01 647.274 1354.58 640.861 1338.43 640.861H1320.09C1303.98 640.861 1288.51 634.448 1277.1 623.033C1265.69 611.619 1250.26 605.206 1234.1 605.206H1205.94C1189.83 605.206 1174.36 611.619 1162.94 623.033L1097 689H1103.41L1162.94 629.446Z" fill="#A3C16D"/>
<path d="M1297.27 671.685C1292.1 676.858 1283.72 676.901 1283.72 676.901C1283.72 676.901 1283.72 668.522 1288.94 663.349C1294.11 658.176 1302.48 658.133 1302.48 658.133C1302.48 658.133 1302.44 666.47 1297.27 671.685Z" fill="#81AB5C"/>
<path d="M1249.53 646.889C1245.13 651.293 1238.04 651.293 1238.04 651.293C1238.04 651.293 1238.04 644.196 1242.44 639.792C1246.84 635.389 1253.93 635.389 1253.93 635.389C1253.93 635.389 1253.93 642.528 1249.53 646.889Z" fill="#408052"/>
<path d="M1222.44 672.412C1218.03 676.816 1210.94 676.816 1210.94 676.816C1210.94 676.816 1210.94 669.719 1215.34 665.315C1219.74 660.912 1226.84 660.912 1226.84 660.912C1226.84 660.912 1226.79 668.009 1222.44 672.412Z" fill="#408052"/>
<path d="M1194.57 638.638C1202.01 646.077 1202.05 658.133 1202.05 658.133C1202.05 658.133 1190 658.09 1182.56 650.651C1175.12 643.212 1175.08 631.156 1175.08 631.156C1175.08 631.156 1187.13 631.199 1194.57 638.638Z" fill="#6B9D59"/>
<path d="M1350.48 664.332C1356.08 669.933 1356.08 678.996 1356.08 678.996C1356.08 678.996 1347.02 678.953 1341.42 673.395C1335.82 667.795 1335.82 658.731 1335.82 658.731C1335.82 658.731 1344.88 658.731 1350.48 664.332Z" fill="#408052"/>
<path d="M1258.42 666.128C1263.93 671.643 1263.93 680.535 1263.93 680.535C1263.93 680.535 1255 680.535 1249.53 675.02C1244.02 669.505 1244.02 660.613 1244.02 660.613C1244.02 660.613 1252.91 660.613 1258.42 666.128Z" fill="#6B9D59"/>
<path d="M1221.79 628.249C1225.43 631.883 1225.43 637.697 1225.43 637.697C1225.43 637.697 1219.57 637.697 1215.98 634.063C1212.39 630.43 1212.35 624.615 1212.35 624.615C1212.35 624.615 1218.16 624.615 1221.79 628.249Z" fill="#AFC97A"/>
<path d="M1163.71 673.652C1157.77 679.595 1148.2 679.595 1148.2 679.595C1148.2 679.595 1148.24 669.975 1154.14 664.075C1160.08 658.133 1169.65 658.133 1169.65 658.133C1169.65 658.133 1169.65 667.709 1163.71 673.652Z" fill="#AFC97A"/>
</g>
<path opacity="0.25" d="M614.493 780.604L584.849 647.936L566.93 728.193L537.286 595L509.354 719.918L493.281 647.936L473.518 736.863L460.87 680.118L438.472 780.472H463.768V780.604H495.916L495.52 782.049H579.051L578.656 780.604H614.493Z" fill="#6C9D58"/>
<path d="M1897.23 980H0V836.43H85.2437C99.473 836.43 113.043 830.781 123.057 820.798L157.049 786.909C167.062 776.926 180.764 771.278 194.862 771.278H688.142C702.372 771.278 715.942 765.629 725.955 755.647L784.453 697.325C794.466 687.342 808.169 681.694 822.266 681.694H1899.74" fill="url(#paint24_linear_141_3)"/>
<path d="M0 847.726H96.7062C110.935 847.726 124.506 842.078 134.519 832.095L168.511 798.205C178.524 788.222 192.227 782.574 206.324 782.574H699.605C713.834 782.574 727.405 776.926 737.418 766.943L795.916 708.622C805.929 698.639 819.631 692.99 833.729 692.99H1899.87L1900 681.563H822.53C808.3 681.563 794.73 687.211 784.717 697.194L726.219 755.515C716.206 765.498 702.503 771.146 688.406 771.146H195.125C180.896 771.146 167.325 776.795 157.312 786.778L123.32 820.667C113.307 830.65 99.6047 836.298 85.5073 836.298H0V847.726Z" fill="#A3C16D"/>
<path d="M924.111 795.184C909.354 795.184 897.497 807.006 897.497 821.718H950.725C950.725 807.137 938.867 795.184 924.111 795.184Z" fill="#508B55"/>
<path d="M578.524 805.824C568.248 805.824 559.815 814.231 559.815 824.476H597.233C597.233 814.099 588.801 805.824 578.524 805.824Z" fill="#508B55"/>
<path d="M616.205 805.824C605.929 805.824 597.497 814.231 597.497 824.476H634.914C634.914 814.099 626.482 805.824 616.205 805.824Z" fill="#508B55"/>
<path d="M653.887 805.824C643.61 805.824 635.178 814.231 635.178 824.476H672.595C672.595 814.099 664.163 805.824 653.887 805.824Z" fill="#508B55"/>
<path d="M1026.22 929.166L1040.58 895.145C1040.84 894.357 1039.92 893.831 1039.39 894.488L1026.61 913.141C1025.16 915.111 1022 914.323 1021.87 911.958L1019.24 886.476C1019.1 885.687 1017.92 885.687 1017.92 886.476L1015.28 911.958C1015.02 914.454 1011.86 915.242 1010.54 913.141L997.76 894.488C997.365 893.831 996.311 894.357 996.574 895.145L1010.94 929.166H1026.22Z" fill="#508B55"/>
<path d="M1457.44 765.235L1471.8 731.215C1472.07 730.426 1471.15 729.901 1470.62 730.558L1457.84 749.21C1456.39 751.18 1453.23 750.392 1453.1 748.028L1450.46 722.545C1450.33 721.757 1449.14 721.757 1449.14 722.545L1446.51 748.028C1446.24 750.524 1443.08 751.312 1441.77 749.21L1428.99 730.558C1428.59 729.901 1427.54 730.426 1427.8 731.215L1442.16 765.235H1457.44Z" fill="#418152"/>
<path d="M1403.29 801.883C1388.54 801.883 1376.68 813.705 1376.68 828.417H1429.91C1429.91 813.705 1418.05 801.883 1403.29 801.883Z" fill="#418152"/>
<path d="M1457.31 801.883C1442.56 801.883 1430.7 813.705 1430.7 828.417H1483.93C1483.93 813.705 1472.07 801.883 1457.31 801.883Z" fill="#418152"/>
<path d="M1302.9 752.494C1288.14 752.494 1276.28 764.316 1276.28 779.028H1329.51C1329.51 764.316 1317.52 752.494 1302.9 752.494Z" fill="#418152"/>
<path d="M802.24 844.574C787.484 844.574 775.626 856.395 775.626 871.107H828.854C828.854 856.395 816.996 844.574 802.24 844.574Z" fill="#508B55"/>
<path d="M856.258 844.574C841.502 844.574 829.644 856.395 829.644 871.107H882.872C882.872 856.395 871.014 844.574 856.258 844.574Z" fill="#508B55"/>
<path d="M905.402 844.574C890.646 844.574 878.788 856.395 878.788 871.107H932.016C932.016 856.395 920.158 844.574 905.402 844.574Z" fill="#508B55"/>
<g clip-path="url(#clip1_141_3)">
<path d="M111.532 846.083V770.066V722.144L171.78 764.551L138.822 638.118L135.13 624.07L151.742 635.755L126.957 540.175L123.529 526.915L137.635 536.893L96.8984 380L92.9434 395.361L56.0297 536.893L70.136 526.915L66.7083 540.175L41.7915 635.755L58.4027 624.07L54.7113 638.118L21.7527 764.551L82.0011 722.144V770.066V845.427C82.0011 848.709 80.8146 851.86 78.5734 854.354L73.4319 860H82.0011H111.268H118.519L114.037 854.223C112.455 851.86 111.532 848.972 111.532 846.083Z" fill="#2C314C"/>
<path d="M223.46 800.263V749.059V716.761L264.065 745.252L241.916 660.175L239.412 650.722L250.618 658.6L233.875 594.267L231.501 585.339L240.994 592.035L213.572 486.477L210.935 496.849L186.15 592.166L195.642 585.47L193.269 594.398L176.526 658.731L187.732 650.853L185.228 660.306L163.079 745.383L203.684 716.893V749.19V800C203.684 802.232 202.893 804.333 201.311 805.908L197.884 809.716H203.684H223.46H228.337L225.305 805.777C224.119 804.07 223.46 802.232 223.46 800.263Z" fill="#2C314C"/>
<path d="M1775.94 680L1752.87 807.484H1799.01L1775.94 680Z" fill="#2C314C"/>
<path d="M1692.49 796.455L1713.45 746.696C1713.98 745.645 1712.4 744.726 1711.74 745.777L1693.02 773.085C1691.04 776.105 1686.3 774.923 1686.03 771.247L1682.21 733.961C1682.08 732.779 1680.36 732.779 1680.23 733.961L1676.41 771.247C1676.01 774.792 1671.4 775.974 1669.42 773.085L1650.7 745.777C1650.04 744.858 1648.46 745.645 1648.99 746.696L1669.95 796.455H1692.49Z" fill="#2C314C"/>
<path d="M496.225 846.871L512.968 807.09C513.364 806.171 512.177 805.514 511.518 806.302L496.621 828.096C495.039 830.46 491.216 829.541 490.952 826.652L487.92 796.849C487.788 795.93 486.47 795.93 486.338 796.849L483.306 826.652C483.042 829.541 479.35 830.46 477.637 828.096L462.739 806.302C462.212 805.514 461.026 806.171 461.289 807.09L478.032 846.871H496.225Z" fill="#2C314C"/>
<path d="M1827.1 603.063L1789.92 807.877H1864.14L1827.1 603.063Z" fill="#2C314C"/>
<path d="M1651.49 790.547C1629.48 790.547 1608.25 799.212 1592.69 814.836L1538.25 869.059C1522.69 884.551 1501.46 893.348 1479.45 893.348H1390.72C1368.71 893.348 1347.48 902.013 1331.92 917.637C1314.13 935.361 1290.13 945.208 1264.95 945.208H882.369C868.79 945.208 855.738 939.825 846.114 930.241L835.436 919.606C825.812 910.022 812.76 904.639 799.181 904.639H724.826C706.633 904.639 689.231 897.418 676.311 884.683L655.482 863.939C642.562 851.072 625.16 843.982 606.966 843.982H479.878C461.685 843.982 444.283 836.761 431.363 824.026L331.696 724.77C318.776 711.904 301.374 704.814 283.181 704.814H0V980.525H1269.04H1339.83H1899.87V790.547H1651.49Z" fill="#2C314C"/>
<path d="M1756.3 907.527C1743.25 907.527 1732.57 918.031 1732.57 931.16H1779.9C1780.03 918.162 1769.48 907.527 1756.3 907.527Z" fill="#4A5377"/>
<path d="M1804.42 907.527C1791.37 907.527 1780.69 918.031 1780.69 931.16H1828.02C1828.15 918.162 1817.47 907.527 1804.42 907.527Z" fill="#4A5377"/>
<path d="M1666.92 863.676C1653.87 863.676 1643.19 874.179 1643.19 887.309H1690.52C1690.65 874.179 1679.97 863.676 1666.92 863.676Z" fill="#4A5377"/>
<path d="M254.836 907.527C241.785 907.527 231.106 918.031 231.106 931.16H278.435C278.566 918.162 267.888 907.527 254.836 907.527Z" fill="#4A5377"/>
<path d="M117.333 863.676C104.281 863.676 93.6025 874.179 93.6025 887.309H140.931C141.063 874.179 130.384 863.676 117.333 863.676Z" fill="#4A5377"/>
<path d="M164.793 863.676C151.742 863.676 141.063 874.179 141.063 887.309H188.392C188.523 874.179 177.845 863.676 164.793 863.676Z" fill="#4A5377"/>
</g>
<defs>
<linearGradient id="paint0_linear_141_3" x1="1531.42" y1="177.364" x2="1755.29" y2="177.364" gradientUnits="userSpaceOnUse">
<stop stop-color="white" stop-opacity="0.5"/>
<stop offset="1" stop-color="white"/>
</linearGradient>
<linearGradient id="paint1_linear_141_3" x1="1840.1" y1="599.794" x2="1658.9" y2="599.794" gradientUnits="userSpaceOnUse">
<stop stop-color="#1A5B39"/>
<stop offset="1" stop-color="#408052"/>
</linearGradient>
<linearGradient id="paint2_linear_141_3" x1="1658.9" y1="599.793" x2="1840.1" y2="599.793" gradientUnits="userSpaceOnUse">
<stop stop-color="#1A5B39"/>
<stop offset="1" stop-color="#408052"/>
</linearGradient>
<linearGradient id="paint3_linear_141_3" x1="1129.14" y1="599.962" x2="1310" y2="599.962" gradientUnits="userSpaceOnUse">
<stop stop-color="#408052"/>
<stop offset="1" stop-color="#81AB5C"/>
</linearGradient>
<linearGradient id="paint4_linear_141_3" x1="1219.57" y1="629.258" x2="1531.42" y2="629.258" gradientUnits="userSpaceOnUse">
<stop stop-color="#5E1E5D" stop-opacity="0.5"/>
<stop offset="1" stop-color="#5E315B"/>
</linearGradient>
<linearGradient id="paint5_linear_141_3" x1="1363.86" y1="625.394" x2="1363.86" y2="579.483" gradientUnits="userSpaceOnUse">
<stop stop-color="#5E1E5D"/>
<stop offset="1" stop-color="#5E1E5D" stop-opacity="0"/>
</linearGradient>
<linearGradient id="paint6_linear_141_3" x1="1368.45" y1="579.483" x2="1368.45" y2="330.522" gradientUnits="userSpaceOnUse">
<stop stop-color="#F8A752"/>
<stop offset="1" stop-color="#F5BF7B"/>
</linearGradient>
<linearGradient id="paint7_linear_141_3" x1="1368.45" y1="579.483" x2="1368.45" y2="330.522" gradientUnits="userSpaceOnUse">
<stop stop-color="#F8A752"/>
<stop offset="1" stop-color="#F5BF7B"/>
</linearGradient>
<linearGradient id="paint8_linear_141_3" x1="1294.23" y1="507.978" x2="1334.85" y2="507.978" gradientUnits="userSpaceOnUse">
<stop stop-color="#5E1E5D" stop-opacity="0.5"/>
<stop offset="1" stop-color="#5E315B"/>
</linearGradient>
<linearGradient id="paint9_linear_141_3" x1="1314.54" y1="525.826" x2="1314.54" y2="486.573" gradientUnits="userSpaceOnUse">
<stop stop-color="#5E1E5D"/>
<stop offset="1" stop-color="#5E1E5D" stop-opacity="0"/>
</linearGradient>
<linearGradient id="paint10_linear_141_3" x1="1351.02" y1="407.521" x2="1391.63" y2="407.521" gradientUnits="userSpaceOnUse">
<stop stop-color="#5E1E5D" stop-opacity="0.5"/>
<stop offset="1" stop-color="#5E315B"/>
</linearGradient>
<linearGradient id="paint11_linear_141_3" x1="1339.69" y1="399.605" x2="1384.26" y2="396.114" gradientUnits="userSpaceOnUse">
<stop offset="0.0005167" stop-color="#F4F4F4" stop-opacity="0"/>
<stop offset="1" stop-color="#F4F4F4"/>
</linearGradient>
<linearGradient id="paint12_linear_141_3" x1="1352.98" y1="412.895" x2="1372.93" y2="421.493" gradientUnits="userSpaceOnUse">
<stop offset="0.0005167" stop-color="#F4F4F4" stop-opacity="0"/>
<stop offset="1" stop-color="#F4F4F4"/>
</linearGradient>
<linearGradient id="paint13_linear_141_3" x1="1405.94" y1="507.978" x2="1446.56" y2="507.978" gradientUnits="userSpaceOnUse">
<stop stop-color="#5E1E5D" stop-opacity="0.5"/>
<stop offset="1" stop-color="#5E315B"/>
</linearGradient>
<linearGradient id="paint14_linear_141_3" x1="1426.25" y1="525.826" x2="1426.25" y2="486.573" gradientUnits="userSpaceOnUse">
<stop stop-color="#5E1E5D"/>
<stop offset="1" stop-color="#5E1E5D" stop-opacity="0"/>
</linearGradient>
<linearGradient id="paint15_linear_141_3" x1="1369.33" y1="579.483" x2="1369.33" y2="504.24" gradientUnits="userSpaceOnUse">
<stop stop-color="#5E1E5D"/>
<stop offset="1" stop-color="#5E1E5D" stop-opacity="0"/>
</linearGradient>
<linearGradient id="paint16_linear_141_3" x1="1282.13" y1="465.144" x2="1453.87" y2="465.144" gradientUnits="userSpaceOnUse">
<stop stop-color="#5E1E5D" stop-opacity="0.5"/>
<stop offset="1" stop-color="#5E315B"/>
</linearGradient>
<linearGradient id="paint17_linear_141_3" x1="1536.44" y1="634.403" x2="1764.26" y2="634.403" gradientUnits="userSpaceOnUse">
<stop stop-color="#5E1E5D" stop-opacity="0.5"/>
<stop offset="1" stop-color="#5E315B"/>
</linearGradient>
<linearGradient id="paint18_linear_141_3" x1="1517.34" y1="593.035" x2="1764.26" y2="593.035" gradientUnits="userSpaceOnUse">
<stop stop-color="#5E1E5D" stop-opacity="0.5"/>
<stop offset="1" stop-color="#5E315B"/>
</linearGradient>
<linearGradient id="paint19_linear_141_3" x1="1219.57" y1="465.714" x2="1377.27" y2="465.714" gradientUnits="userSpaceOnUse">
<stop stop-color="#5E1E5D" stop-opacity="0.5"/>
<stop offset="1" stop-color="#5E315B"/>
</linearGradient>
<linearGradient id="paint20_linear_141_3" x1="1368.45" y1="310.011" x2="1610.79" y2="310.011" gradientUnits="userSpaceOnUse">
<stop stop-color="#715956" stop-opacity="0.5"/>
<stop offset="1" stop-color="#493131"/>
</linearGradient>
<linearGradient id="paint21_linear_141_3" x1="1262.73" y1="616.793" x2="1869.98" y2="616.793" gradientUnits="userSpaceOnUse">
<stop stop-color="#408052"/>
<stop offset="1" stop-color="#81AB5C"/>
</linearGradient>
<linearGradient id="paint22_linear_141_3" x1="1551.84" y1="658.111" x2="1786.91" y2="658.111" gradientUnits="userSpaceOnUse">
<stop stop-color="#6B9D59"/>
<stop offset="1" stop-color="#AFC97A"/>
</linearGradient>
<linearGradient id="paint23_linear_141_3" x1="1097" y1="647.111" x2="1411.52" y2="647.111" gradientUnits="userSpaceOnUse">
<stop stop-color="#6B9D59"/>
<stop offset="1" stop-color="#AFC97A"/>
</linearGradient>
<linearGradient id="paint24_linear_141_3" x1="0" y1="830.813" x2="1900.04" y2="830.813" gradientUnits="userSpaceOnUse">
<stop stop-color="#AFC97A"/>
<stop offset="1" stop-color="#6B9D59"/>
</linearGradient>
<clipPath id="clip0_141_3">
<rect width="773" height="576" fill="white" transform="translate(1097 113)"/>
</clipPath>
<clipPath id="clip1_141_3">
<rect width="1900" height="600" fill="white" transform="translate(0 380)"/>
</clipPath>
</defs>
</svg>
