<svg width="268" height="48" viewBox="0 0 268 48" fill="none" xmlns="http://www.w3.org/2000/svg">
<g clip-path="url(#clip0_3_21)">
<path d="M68.3899 10.9046H73.5561V37.0466H68.3899V26.2393H58.5496V37.0466H53.3343V10.9046H58.5496V21.2738H68.3899V10.9046Z" fill="#2F3556"/>
<path d="M93.5318 34.7099C91.613 36.6085 89.2513 37.5821 86.4468 37.5821C83.6424 37.5821 81.2807 36.6085 79.3618 34.7099C77.443 32.8113 76.459 30.4746 76.459 27.6998C76.459 24.9249 77.443 22.5882 79.3618 20.6896C81.2807 18.791 83.6424 17.8174 86.4468 17.8174C89.2513 17.8174 91.613 18.791 93.5318 20.6896C95.4507 22.5882 96.4347 24.9249 96.4347 27.6998C96.4347 30.4746 95.4999 32.8113 93.5318 34.7099ZM82.8059 31.4482C83.79 32.4219 84.9708 32.9087 86.4468 32.9087C87.9229 32.9087 89.1037 32.4219 90.0877 31.4482C91.0718 30.4746 91.5638 29.2576 91.5638 27.7484C91.5638 26.2393 91.0718 25.0223 90.0877 24.0487C89.1037 23.075 87.8737 22.5882 86.4468 22.5882C84.9708 22.5882 83.79 23.075 82.8059 24.0487C81.8219 25.0223 81.3299 26.2393 81.3299 27.7484C81.3791 29.2089 81.8219 30.4746 82.8059 31.4482Z" fill="#2F3556"/>
<path d="M111.589 18.4016H116.46V37.0953H111.589V35.002C110.408 36.7545 108.538 37.6308 105.98 37.6308C103.913 37.6308 102.191 36.9493 100.863 35.5862C99.5344 34.2231 98.8456 32.3245 98.8456 29.8904V18.4016H103.717V29.2576C103.717 30.5233 104.061 31.4482 104.75 32.1298C105.439 32.8113 106.324 33.1034 107.456 33.1034C108.735 33.1034 109.719 32.714 110.457 31.9351C111.195 31.1561 111.589 29.9878 111.589 28.4787V18.4016Z" fill="#2F3556"/>
<path d="M124.48 23.7079C124.48 24.1947 124.824 24.6328 125.464 24.9249C126.152 25.217 126.94 25.5091 127.874 25.7525C128.809 25.9959 129.793 26.288 130.728 26.6288C131.663 26.9695 132.499 27.6024 133.139 28.43C133.828 29.2576 134.123 30.3286 134.123 31.5943C134.123 33.4929 133.385 35.002 131.958 36.0243C130.531 37.0466 128.711 37.5821 126.546 37.5821C122.659 37.5821 120.051 36.1217 118.625 33.1521L122.856 30.8154C123.397 32.4219 124.627 33.2494 126.546 33.2494C128.268 33.2494 129.154 32.714 129.154 31.643C129.154 31.1561 128.809 30.718 128.17 30.4259C127.481 30.1338 126.694 29.8417 125.759 29.5983C124.824 29.3549 123.84 29.0142 122.905 28.6734C121.97 28.2839 121.134 27.6998 120.494 26.9208C119.805 26.0933 119.51 25.1196 119.51 23.8539C119.51 22.004 120.199 20.5436 121.577 19.5213C122.954 18.4503 124.676 17.9148 126.694 17.9148C128.219 17.9148 129.646 18.2555 130.876 18.9371C132.155 19.6186 133.139 20.5923 133.877 21.858L129.744 24.0973C129.154 22.8316 128.12 22.1987 126.743 22.1987C126.103 22.1987 125.611 22.3448 125.168 22.5882C124.726 22.8316 124.48 23.2211 124.48 23.7079Z" fill="#2F3556"/>
<path d="M140.47 29.6957C141.11 32.0324 142.881 33.2008 145.784 33.2008C147.653 33.2008 149.031 32.5679 150.015 31.3509L153.951 33.5902C152.082 36.2677 149.326 37.5821 145.735 37.5821C142.635 37.5821 140.126 36.6572 138.207 34.7586C136.337 32.9087 135.353 30.5233 135.353 27.6998C135.353 24.8762 136.288 22.5395 138.158 20.6409C140.027 18.7424 142.389 17.8174 145.341 17.8174C148.096 17.8174 150.409 18.7424 152.18 20.6409C154 22.5395 154.886 24.8762 154.886 27.6511C154.886 28.2839 154.837 28.9168 154.689 29.647H140.47V29.6957ZM140.372 25.9959H150.015C149.72 24.7302 149.179 23.7566 148.293 23.1724C147.407 22.5395 146.423 22.2474 145.341 22.2474C144.012 22.2474 142.93 22.5882 142.094 23.2211C141.208 23.8539 140.667 24.7789 140.372 25.9959Z" fill="#2F3556"/>
<path d="M192.476 23.0263V25.0223C192.476 28.7708 191.246 31.789 188.835 34.0771C186.424 36.4138 183.275 37.5334 179.487 37.5334C175.403 37.5334 172.008 36.219 169.351 33.5902C166.694 30.9614 165.317 27.7485 165.317 23.9513C165.317 20.1541 166.645 16.9412 169.302 14.2637C171.959 11.6349 175.255 10.3205 179.191 10.3205C181.652 10.3205 183.915 10.856 185.932 11.9756C187.949 13.0953 189.573 14.5558 190.705 16.4057L186.227 18.9371C185.588 17.8661 184.653 16.9898 183.374 16.3083C182.094 15.6268 180.667 15.286 179.142 15.286C176.633 15.286 174.566 16.1136 172.943 17.7201C171.319 19.3266 170.532 21.4199 170.532 23.9026C170.532 26.3854 171.368 28.3813 172.992 29.9878C174.616 31.5943 176.83 32.3732 179.536 32.3732C181.553 32.3732 183.226 31.9351 184.554 31.0588C185.883 30.1825 186.768 28.9655 187.26 27.4077H179.241V22.8316H192.476V23.0263Z" fill="#2F3556"/>
<path d="M209.549 18.4016H214.42V37.0953H209.549V34.9046C208.073 36.7059 206.055 37.6308 203.399 37.6308C200.889 37.6308 198.724 36.6572 196.904 34.7586C195.084 32.86 194.198 30.5233 194.198 27.7484C194.198 24.9736 195.084 22.6369 196.904 20.7383C198.724 18.8397 200.84 17.8661 203.399 17.8661C206.055 17.8661 208.073 18.791 209.549 20.5923V18.4016ZM200.545 31.4969C201.529 32.4706 202.759 32.9574 204.284 32.9574C205.809 32.9574 207.039 32.4706 208.023 31.4969C209.007 30.5233 209.499 29.2576 209.499 27.6998C209.499 26.142 209.007 24.8762 208.023 23.9026C207.039 22.929 205.76 22.4422 204.284 22.4422C202.759 22.4422 201.529 22.929 200.545 23.9026C199.561 24.8762 199.069 26.142 199.069 27.6998C199.069 29.2576 199.561 30.5233 200.545 31.4969Z" fill="#2F3556"/>
<path d="M238.971 17.8661C241.136 17.8661 242.858 18.5476 244.137 19.9594C245.417 21.3712 246.105 23.2211 246.105 25.5578V37.0466H241.234V25.8985C241.234 24.7789 240.939 23.9026 240.398 23.2697C239.857 22.6369 239.07 22.3448 238.036 22.3448C236.905 22.3448 236.068 22.6856 235.429 23.4158C234.789 24.146 234.494 25.1683 234.494 26.5314V37.0466H229.623V25.8985C229.623 24.7789 229.328 23.9026 228.786 23.2697C228.245 22.6369 227.458 22.3448 226.425 22.3448C225.342 22.3448 224.457 22.6856 223.817 23.4158C223.178 24.146 222.833 25.1683 222.833 26.5314V37.0466H217.962V18.4016H222.833V20.3975C223.965 18.7424 225.736 17.9148 228.098 17.9148C230.41 17.9148 232.132 18.791 233.215 20.5923C234.592 18.7424 236.462 17.8661 238.971 17.8661Z" fill="#2F3556"/>
<path d="M253.584 29.6957C254.224 32.0324 255.995 33.2008 258.898 33.2008C260.767 33.2008 262.145 32.5679 263.129 31.3509L267.065 33.5902C265.195 36.2677 262.44 37.5821 258.848 37.5821C255.749 37.5821 253.24 36.6572 251.321 34.7586C249.451 32.9087 248.467 30.5233 248.467 27.6998C248.467 24.8762 249.402 22.5395 251.271 20.6409C253.141 18.7424 255.503 17.8174 258.455 17.8174C261.21 17.8174 263.523 18.7424 265.294 20.6409C267.114 22.5395 268 24.8762 268 27.6511C268 28.2839 267.951 28.9168 267.803 29.647H253.584V29.6957ZM253.535 25.9959H263.178C262.883 24.7302 262.342 23.7566 261.456 23.1724C260.571 22.5395 259.587 22.2474 258.504 22.2474C257.176 22.2474 256.093 22.5882 255.257 23.2211C254.371 23.8539 253.781 24.7789 253.535 25.9959Z" fill="#2F3556"/>
<path d="M37.0979 48H2.06646C0.934826 48 0 47.075 0 45.9554V20.8844C0 19.716 0.442812 18.5477 1.27924 17.6714L18.0569 0.632848C18.8933 -0.24342 20.271 -0.24342 21.1074 0.632848L37.8851 17.6227C38.7215 18.499 39.1643 19.6186 39.1643 20.8357V45.9067C39.2135 47.075 38.2787 48 37.0979 48Z" fill="#2F3556"/>
<path d="M19.5821 13.5335C21.8375 13.5335 23.6658 11.7244 23.6658 9.4929C23.6658 7.26136 21.8375 5.45233 19.5821 5.45233C17.3268 5.45233 15.4984 7.26136 15.4984 9.4929C15.4984 11.7244 17.3268 13.5335 19.5821 13.5335Z" fill="#2AC6EA"/>
<path d="M25.4371 23.9026V44.641C31.2429 44.641 35.917 40.0162 35.917 34.2718C35.917 28.5274 31.1937 23.9026 25.4371 23.9026Z" fill="#ED6673"/>
<path d="M21.255 37.9716H3.3457V44.641H21.255V37.9716Z" fill="#F7B86E"/>
<path d="M14.6128 21.5659V25.8012H7.92143V30.0365H3.3457V34.2718H21.255V30.0365V25.8012V21.5659H14.6128Z" fill="#2AC6EA"/>
<path d="M25.4371 12.1217L34.4902 21.0791H25.4371V12.1217Z" fill="#F7B86E"/>
<path d="M15.4984 15.286L7.18341 23.5618V15.286H15.4984Z" fill="#ED6673"/>
</g>
<defs>
<clipPath id="clip0_3_21">
<rect width="268" height="48" fill="white"/>
</clipPath>
</defs>
</svg>
